%TF.GenerationSoftware,KiCad,Pcbnew,8.0.4*%
%TF.CreationDate,2025-01-10T16:53:50-05:00*%
%TF.ProjectId,X17-ESC-Adapter,5831372d-4553-4432-9d41-646170746572,rev?*%
%TF.SameCoordinates,Original*%
%TF.FileFunction,Drillmap*%
%TF.FilePolarity,Positive*%
%FSLAX45Y45*%
G04 Gerber Fmt 4.5, Leading zero omitted, Abs format (unit mm)*
G04 Created by KiCad (PCBNEW 8.0.4) date 2025-01-10 16:53:50*
%MOMM*%
%LPD*%
G01*
G04 APERTURE LIST*
%ADD10C,0.050000*%
%ADD11C,0.200000*%
%ADD12C,0.381000*%
G04 APERTURE END LIST*
D10*
X13788400Y-8449394D02*
G75*
G02*
X13851534Y-8385901I63480J14D01*
G01*
X10715000Y-11800000D02*
X10715000Y-7685200D01*
X17863011Y-11800553D02*
G75*
G02*
X17801000Y-11740000I1490J63553D01*
G01*
X17003000Y-9164000D02*
X16998919Y-8435566D01*
X14570052Y-8388775D02*
X13851530Y-8385183D01*
X17801600Y-8434329D02*
X17801000Y-11740000D01*
X13724900Y-11800000D02*
X10715000Y-11800000D01*
X13788400Y-8449315D02*
X13788400Y-11736500D01*
X14637890Y-8450845D02*
X14636110Y-9167312D01*
X14700000Y-9230000D02*
G75*
G02*
X14636112Y-9167312I20J63920D01*
G01*
X17863000Y-11801000D02*
X20872900Y-11801000D01*
X17062131Y-8371881D02*
X17737813Y-8370829D01*
X14570052Y-8388775D02*
G75*
G02*
X14637887Y-8450845I4738J-62925D01*
G01*
X20872900Y-11801000D02*
X20875000Y-7685200D01*
X20875000Y-7685200D02*
X10715000Y-7685200D01*
X17737813Y-8370829D02*
G75*
G02*
X17801592Y-8434329I287J-63491D01*
G01*
X13788400Y-11736500D02*
G75*
G02*
X13724900Y-11800000I-63500J0D01*
G01*
X14700000Y-9229520D02*
X16936500Y-9229520D01*
X16998919Y-8435566D02*
G75*
G02*
X17062131Y-8371879I63501J186D01*
G01*
X17003000Y-9164000D02*
G75*
G02*
X16935578Y-9229208I-67420J2250D01*
G01*
D11*
D12*
X10898500Y-7855500D02*
X11279500Y-8236500D01*
X11279500Y-7855500D02*
X10898500Y-8236500D01*
X20309500Y-7864500D02*
X20690500Y-8245500D01*
X20690500Y-7864500D02*
X20309500Y-8245500D01*
D11*
X10973277Y-12114984D02*
X10973277Y-11914984D01*
X10973277Y-11914984D02*
X11020896Y-11914984D01*
X11020896Y-11914984D02*
X11049467Y-11924508D01*
X11049467Y-11924508D02*
X11068515Y-11943555D01*
X11068515Y-11943555D02*
X11078039Y-11962603D01*
X11078039Y-11962603D02*
X11087563Y-12000698D01*
X11087563Y-12000698D02*
X11087563Y-12029269D01*
X11087563Y-12029269D02*
X11078039Y-12067365D01*
X11078039Y-12067365D02*
X11068515Y-12086412D01*
X11068515Y-12086412D02*
X11049467Y-12105460D01*
X11049467Y-12105460D02*
X11020896Y-12114984D01*
X11020896Y-12114984D02*
X10973277Y-12114984D01*
X11173277Y-12114984D02*
X11173277Y-11981650D01*
X11173277Y-12019746D02*
X11182801Y-12000698D01*
X11182801Y-12000698D02*
X11192324Y-11991174D01*
X11192324Y-11991174D02*
X11211372Y-11981650D01*
X11211372Y-11981650D02*
X11230420Y-11981650D01*
X11297086Y-12114984D02*
X11297086Y-11981650D01*
X11297086Y-11914984D02*
X11287562Y-11924508D01*
X11287562Y-11924508D02*
X11297086Y-11934031D01*
X11297086Y-11934031D02*
X11306610Y-11924508D01*
X11306610Y-11924508D02*
X11297086Y-11914984D01*
X11297086Y-11914984D02*
X11297086Y-11934031D01*
X11420896Y-12114984D02*
X11401848Y-12105460D01*
X11401848Y-12105460D02*
X11392324Y-12086412D01*
X11392324Y-12086412D02*
X11392324Y-11914984D01*
X11525658Y-12114984D02*
X11506610Y-12105460D01*
X11506610Y-12105460D02*
X11497086Y-12086412D01*
X11497086Y-12086412D02*
X11497086Y-11914984D01*
X11754229Y-12114984D02*
X11754229Y-11914984D01*
X11754229Y-11914984D02*
X11820896Y-12057841D01*
X11820896Y-12057841D02*
X11887562Y-11914984D01*
X11887562Y-11914984D02*
X11887562Y-12114984D01*
X12068515Y-12114984D02*
X12068515Y-12010222D01*
X12068515Y-12010222D02*
X12058991Y-11991174D01*
X12058991Y-11991174D02*
X12039943Y-11981650D01*
X12039943Y-11981650D02*
X12001848Y-11981650D01*
X12001848Y-11981650D02*
X11982801Y-11991174D01*
X12068515Y-12105460D02*
X12049467Y-12114984D01*
X12049467Y-12114984D02*
X12001848Y-12114984D01*
X12001848Y-12114984D02*
X11982801Y-12105460D01*
X11982801Y-12105460D02*
X11973277Y-12086412D01*
X11973277Y-12086412D02*
X11973277Y-12067365D01*
X11973277Y-12067365D02*
X11982801Y-12048317D01*
X11982801Y-12048317D02*
X12001848Y-12038793D01*
X12001848Y-12038793D02*
X12049467Y-12038793D01*
X12049467Y-12038793D02*
X12068515Y-12029269D01*
X12163753Y-11981650D02*
X12163753Y-12181650D01*
X12163753Y-11991174D02*
X12182801Y-11981650D01*
X12182801Y-11981650D02*
X12220896Y-11981650D01*
X12220896Y-11981650D02*
X12239943Y-11991174D01*
X12239943Y-11991174D02*
X12249467Y-12000698D01*
X12249467Y-12000698D02*
X12258991Y-12019746D01*
X12258991Y-12019746D02*
X12258991Y-12076888D01*
X12258991Y-12076888D02*
X12249467Y-12095936D01*
X12249467Y-12095936D02*
X12239943Y-12105460D01*
X12239943Y-12105460D02*
X12220896Y-12114984D01*
X12220896Y-12114984D02*
X12182801Y-12114984D01*
X12182801Y-12114984D02*
X12163753Y-12105460D01*
X12344705Y-12095936D02*
X12354229Y-12105460D01*
X12354229Y-12105460D02*
X12344705Y-12114984D01*
X12344705Y-12114984D02*
X12335182Y-12105460D01*
X12335182Y-12105460D02*
X12344705Y-12095936D01*
X12344705Y-12095936D02*
X12344705Y-12114984D01*
X12344705Y-11991174D02*
X12354229Y-12000698D01*
X12354229Y-12000698D02*
X12344705Y-12010222D01*
X12344705Y-12010222D02*
X12335182Y-12000698D01*
X12335182Y-12000698D02*
X12344705Y-11991174D01*
X12344705Y-11991174D02*
X12344705Y-12010222D01*
X10512500Y-12343500D02*
X10712500Y-12543500D01*
X10712500Y-12343500D02*
X10512500Y-12543500D01*
X10954229Y-12334984D02*
X11078039Y-12334984D01*
X11078039Y-12334984D02*
X11011372Y-12411174D01*
X11011372Y-12411174D02*
X11039944Y-12411174D01*
X11039944Y-12411174D02*
X11058991Y-12420698D01*
X11058991Y-12420698D02*
X11068515Y-12430222D01*
X11068515Y-12430222D02*
X11078039Y-12449269D01*
X11078039Y-12449269D02*
X11078039Y-12496888D01*
X11078039Y-12496888D02*
X11068515Y-12515936D01*
X11068515Y-12515936D02*
X11058991Y-12525460D01*
X11058991Y-12525460D02*
X11039944Y-12534984D01*
X11039944Y-12534984D02*
X10982801Y-12534984D01*
X10982801Y-12534984D02*
X10963753Y-12525460D01*
X10963753Y-12525460D02*
X10954229Y-12515936D01*
X11163753Y-12515936D02*
X11173277Y-12525460D01*
X11173277Y-12525460D02*
X11163753Y-12534984D01*
X11163753Y-12534984D02*
X11154229Y-12525460D01*
X11154229Y-12525460D02*
X11163753Y-12515936D01*
X11163753Y-12515936D02*
X11163753Y-12534984D01*
X11287562Y-12420698D02*
X11268515Y-12411174D01*
X11268515Y-12411174D02*
X11258991Y-12401650D01*
X11258991Y-12401650D02*
X11249467Y-12382603D01*
X11249467Y-12382603D02*
X11249467Y-12373079D01*
X11249467Y-12373079D02*
X11258991Y-12354031D01*
X11258991Y-12354031D02*
X11268515Y-12344508D01*
X11268515Y-12344508D02*
X11287562Y-12334984D01*
X11287562Y-12334984D02*
X11325658Y-12334984D01*
X11325658Y-12334984D02*
X11344705Y-12344508D01*
X11344705Y-12344508D02*
X11354229Y-12354031D01*
X11354229Y-12354031D02*
X11363753Y-12373079D01*
X11363753Y-12373079D02*
X11363753Y-12382603D01*
X11363753Y-12382603D02*
X11354229Y-12401650D01*
X11354229Y-12401650D02*
X11344705Y-12411174D01*
X11344705Y-12411174D02*
X11325658Y-12420698D01*
X11325658Y-12420698D02*
X11287562Y-12420698D01*
X11287562Y-12420698D02*
X11268515Y-12430222D01*
X11268515Y-12430222D02*
X11258991Y-12439746D01*
X11258991Y-12439746D02*
X11249467Y-12458793D01*
X11249467Y-12458793D02*
X11249467Y-12496888D01*
X11249467Y-12496888D02*
X11258991Y-12515936D01*
X11258991Y-12515936D02*
X11268515Y-12525460D01*
X11268515Y-12525460D02*
X11287562Y-12534984D01*
X11287562Y-12534984D02*
X11325658Y-12534984D01*
X11325658Y-12534984D02*
X11344705Y-12525460D01*
X11344705Y-12525460D02*
X11354229Y-12515936D01*
X11354229Y-12515936D02*
X11363753Y-12496888D01*
X11363753Y-12496888D02*
X11363753Y-12458793D01*
X11363753Y-12458793D02*
X11354229Y-12439746D01*
X11354229Y-12439746D02*
X11344705Y-12430222D01*
X11344705Y-12430222D02*
X11325658Y-12420698D01*
X11554229Y-12534984D02*
X11439943Y-12534984D01*
X11497086Y-12534984D02*
X11497086Y-12334984D01*
X11497086Y-12334984D02*
X11478039Y-12363555D01*
X11478039Y-12363555D02*
X11458991Y-12382603D01*
X11458991Y-12382603D02*
X11439943Y-12392127D01*
X11678039Y-12334984D02*
X11697086Y-12334984D01*
X11697086Y-12334984D02*
X11716134Y-12344508D01*
X11716134Y-12344508D02*
X11725658Y-12354031D01*
X11725658Y-12354031D02*
X11735182Y-12373079D01*
X11735182Y-12373079D02*
X11744705Y-12411174D01*
X11744705Y-12411174D02*
X11744705Y-12458793D01*
X11744705Y-12458793D02*
X11735182Y-12496888D01*
X11735182Y-12496888D02*
X11725658Y-12515936D01*
X11725658Y-12515936D02*
X11716134Y-12525460D01*
X11716134Y-12525460D02*
X11697086Y-12534984D01*
X11697086Y-12534984D02*
X11678039Y-12534984D01*
X11678039Y-12534984D02*
X11658991Y-12525460D01*
X11658991Y-12525460D02*
X11649467Y-12515936D01*
X11649467Y-12515936D02*
X11639943Y-12496888D01*
X11639943Y-12496888D02*
X11630420Y-12458793D01*
X11630420Y-12458793D02*
X11630420Y-12411174D01*
X11630420Y-12411174D02*
X11639943Y-12373079D01*
X11639943Y-12373079D02*
X11649467Y-12354031D01*
X11649467Y-12354031D02*
X11658991Y-12344508D01*
X11658991Y-12344508D02*
X11678039Y-12334984D01*
X11830420Y-12534984D02*
X11830420Y-12401650D01*
X11830420Y-12420698D02*
X11839943Y-12411174D01*
X11839943Y-12411174D02*
X11858991Y-12401650D01*
X11858991Y-12401650D02*
X11887563Y-12401650D01*
X11887563Y-12401650D02*
X11906610Y-12411174D01*
X11906610Y-12411174D02*
X11916134Y-12430222D01*
X11916134Y-12430222D02*
X11916134Y-12534984D01*
X11916134Y-12430222D02*
X11925658Y-12411174D01*
X11925658Y-12411174D02*
X11944705Y-12401650D01*
X11944705Y-12401650D02*
X11973277Y-12401650D01*
X11973277Y-12401650D02*
X11992324Y-12411174D01*
X11992324Y-12411174D02*
X12001848Y-12430222D01*
X12001848Y-12430222D02*
X12001848Y-12534984D01*
X12097086Y-12534984D02*
X12097086Y-12401650D01*
X12097086Y-12420698D02*
X12106610Y-12411174D01*
X12106610Y-12411174D02*
X12125658Y-12401650D01*
X12125658Y-12401650D02*
X12154229Y-12401650D01*
X12154229Y-12401650D02*
X12173277Y-12411174D01*
X12173277Y-12411174D02*
X12182801Y-12430222D01*
X12182801Y-12430222D02*
X12182801Y-12534984D01*
X12182801Y-12430222D02*
X12192324Y-12411174D01*
X12192324Y-12411174D02*
X12211372Y-12401650D01*
X12211372Y-12401650D02*
X12239943Y-12401650D01*
X12239943Y-12401650D02*
X12258991Y-12411174D01*
X12258991Y-12411174D02*
X12268515Y-12430222D01*
X12268515Y-12430222D02*
X12268515Y-12534984D01*
X12658991Y-12325460D02*
X12487563Y-12582603D01*
X12916134Y-12334984D02*
X12935182Y-12334984D01*
X12935182Y-12334984D02*
X12954229Y-12344508D01*
X12954229Y-12344508D02*
X12963753Y-12354031D01*
X12963753Y-12354031D02*
X12973277Y-12373079D01*
X12973277Y-12373079D02*
X12982801Y-12411174D01*
X12982801Y-12411174D02*
X12982801Y-12458793D01*
X12982801Y-12458793D02*
X12973277Y-12496888D01*
X12973277Y-12496888D02*
X12963753Y-12515936D01*
X12963753Y-12515936D02*
X12954229Y-12525460D01*
X12954229Y-12525460D02*
X12935182Y-12534984D01*
X12935182Y-12534984D02*
X12916134Y-12534984D01*
X12916134Y-12534984D02*
X12897086Y-12525460D01*
X12897086Y-12525460D02*
X12887563Y-12515936D01*
X12887563Y-12515936D02*
X12878039Y-12496888D01*
X12878039Y-12496888D02*
X12868515Y-12458793D01*
X12868515Y-12458793D02*
X12868515Y-12411174D01*
X12868515Y-12411174D02*
X12878039Y-12373079D01*
X12878039Y-12373079D02*
X12887563Y-12354031D01*
X12887563Y-12354031D02*
X12897086Y-12344508D01*
X12897086Y-12344508D02*
X12916134Y-12334984D01*
X13068515Y-12515936D02*
X13078039Y-12525460D01*
X13078039Y-12525460D02*
X13068515Y-12534984D01*
X13068515Y-12534984D02*
X13058991Y-12525460D01*
X13058991Y-12525460D02*
X13068515Y-12515936D01*
X13068515Y-12515936D02*
X13068515Y-12534984D01*
X13268515Y-12534984D02*
X13154229Y-12534984D01*
X13211372Y-12534984D02*
X13211372Y-12334984D01*
X13211372Y-12334984D02*
X13192325Y-12363555D01*
X13192325Y-12363555D02*
X13173277Y-12382603D01*
X13173277Y-12382603D02*
X13154229Y-12392127D01*
X13449467Y-12334984D02*
X13354229Y-12334984D01*
X13354229Y-12334984D02*
X13344706Y-12430222D01*
X13344706Y-12430222D02*
X13354229Y-12420698D01*
X13354229Y-12420698D02*
X13373277Y-12411174D01*
X13373277Y-12411174D02*
X13420896Y-12411174D01*
X13420896Y-12411174D02*
X13439944Y-12420698D01*
X13439944Y-12420698D02*
X13449467Y-12430222D01*
X13449467Y-12430222D02*
X13458991Y-12449269D01*
X13458991Y-12449269D02*
X13458991Y-12496888D01*
X13458991Y-12496888D02*
X13449467Y-12515936D01*
X13449467Y-12515936D02*
X13439944Y-12525460D01*
X13439944Y-12525460D02*
X13420896Y-12534984D01*
X13420896Y-12534984D02*
X13373277Y-12534984D01*
X13373277Y-12534984D02*
X13354229Y-12525460D01*
X13354229Y-12525460D02*
X13344706Y-12515936D01*
X13582801Y-12334984D02*
X13601848Y-12334984D01*
X13601848Y-12334984D02*
X13620896Y-12344508D01*
X13620896Y-12344508D02*
X13630420Y-12354031D01*
X13630420Y-12354031D02*
X13639944Y-12373079D01*
X13639944Y-12373079D02*
X13649467Y-12411174D01*
X13649467Y-12411174D02*
X13649467Y-12458793D01*
X13649467Y-12458793D02*
X13639944Y-12496888D01*
X13639944Y-12496888D02*
X13630420Y-12515936D01*
X13630420Y-12515936D02*
X13620896Y-12525460D01*
X13620896Y-12525460D02*
X13601848Y-12534984D01*
X13601848Y-12534984D02*
X13582801Y-12534984D01*
X13582801Y-12534984D02*
X13563753Y-12525460D01*
X13563753Y-12525460D02*
X13554229Y-12515936D01*
X13554229Y-12515936D02*
X13544706Y-12496888D01*
X13544706Y-12496888D02*
X13535182Y-12458793D01*
X13535182Y-12458793D02*
X13535182Y-12411174D01*
X13535182Y-12411174D02*
X13544706Y-12373079D01*
X13544706Y-12373079D02*
X13554229Y-12354031D01*
X13554229Y-12354031D02*
X13563753Y-12344508D01*
X13563753Y-12344508D02*
X13582801Y-12334984D01*
X13773277Y-12334984D02*
X13792325Y-12334984D01*
X13792325Y-12334984D02*
X13811372Y-12344508D01*
X13811372Y-12344508D02*
X13820896Y-12354031D01*
X13820896Y-12354031D02*
X13830420Y-12373079D01*
X13830420Y-12373079D02*
X13839944Y-12411174D01*
X13839944Y-12411174D02*
X13839944Y-12458793D01*
X13839944Y-12458793D02*
X13830420Y-12496888D01*
X13830420Y-12496888D02*
X13820896Y-12515936D01*
X13820896Y-12515936D02*
X13811372Y-12525460D01*
X13811372Y-12525460D02*
X13792325Y-12534984D01*
X13792325Y-12534984D02*
X13773277Y-12534984D01*
X13773277Y-12534984D02*
X13754229Y-12525460D01*
X13754229Y-12525460D02*
X13744706Y-12515936D01*
X13744706Y-12515936D02*
X13735182Y-12496888D01*
X13735182Y-12496888D02*
X13725658Y-12458793D01*
X13725658Y-12458793D02*
X13725658Y-12411174D01*
X13725658Y-12411174D02*
X13735182Y-12373079D01*
X13735182Y-12373079D02*
X13744706Y-12354031D01*
X13744706Y-12354031D02*
X13754229Y-12344508D01*
X13754229Y-12344508D02*
X13773277Y-12334984D01*
X13916134Y-12334984D02*
X13916134Y-12373079D01*
X13992325Y-12334984D02*
X13992325Y-12373079D01*
X14287563Y-12611174D02*
X14278039Y-12601650D01*
X14278039Y-12601650D02*
X14258991Y-12573079D01*
X14258991Y-12573079D02*
X14249468Y-12554031D01*
X14249468Y-12554031D02*
X14239944Y-12525460D01*
X14239944Y-12525460D02*
X14230420Y-12477841D01*
X14230420Y-12477841D02*
X14230420Y-12439746D01*
X14230420Y-12439746D02*
X14239944Y-12392127D01*
X14239944Y-12392127D02*
X14249468Y-12363555D01*
X14249468Y-12363555D02*
X14258991Y-12344508D01*
X14258991Y-12344508D02*
X14278039Y-12315936D01*
X14278039Y-12315936D02*
X14287563Y-12306412D01*
X14354229Y-12354031D02*
X14363753Y-12344508D01*
X14363753Y-12344508D02*
X14382801Y-12334984D01*
X14382801Y-12334984D02*
X14430420Y-12334984D01*
X14430420Y-12334984D02*
X14449468Y-12344508D01*
X14449468Y-12344508D02*
X14458991Y-12354031D01*
X14458991Y-12354031D02*
X14468515Y-12373079D01*
X14468515Y-12373079D02*
X14468515Y-12392127D01*
X14468515Y-12392127D02*
X14458991Y-12420698D01*
X14458991Y-12420698D02*
X14344706Y-12534984D01*
X14344706Y-12534984D02*
X14468515Y-12534984D01*
X14706610Y-12534984D02*
X14706610Y-12334984D01*
X14792325Y-12534984D02*
X14792325Y-12430222D01*
X14792325Y-12430222D02*
X14782801Y-12411174D01*
X14782801Y-12411174D02*
X14763753Y-12401650D01*
X14763753Y-12401650D02*
X14735182Y-12401650D01*
X14735182Y-12401650D02*
X14716134Y-12411174D01*
X14716134Y-12411174D02*
X14706610Y-12420698D01*
X14916134Y-12534984D02*
X14897087Y-12525460D01*
X14897087Y-12525460D02*
X14887563Y-12515936D01*
X14887563Y-12515936D02*
X14878039Y-12496888D01*
X14878039Y-12496888D02*
X14878039Y-12439746D01*
X14878039Y-12439746D02*
X14887563Y-12420698D01*
X14887563Y-12420698D02*
X14897087Y-12411174D01*
X14897087Y-12411174D02*
X14916134Y-12401650D01*
X14916134Y-12401650D02*
X14944706Y-12401650D01*
X14944706Y-12401650D02*
X14963753Y-12411174D01*
X14963753Y-12411174D02*
X14973277Y-12420698D01*
X14973277Y-12420698D02*
X14982801Y-12439746D01*
X14982801Y-12439746D02*
X14982801Y-12496888D01*
X14982801Y-12496888D02*
X14973277Y-12515936D01*
X14973277Y-12515936D02*
X14963753Y-12525460D01*
X14963753Y-12525460D02*
X14944706Y-12534984D01*
X14944706Y-12534984D02*
X14916134Y-12534984D01*
X15097087Y-12534984D02*
X15078039Y-12525460D01*
X15078039Y-12525460D02*
X15068515Y-12506412D01*
X15068515Y-12506412D02*
X15068515Y-12334984D01*
X15249468Y-12525460D02*
X15230420Y-12534984D01*
X15230420Y-12534984D02*
X15192325Y-12534984D01*
X15192325Y-12534984D02*
X15173277Y-12525460D01*
X15173277Y-12525460D02*
X15163753Y-12506412D01*
X15163753Y-12506412D02*
X15163753Y-12430222D01*
X15163753Y-12430222D02*
X15173277Y-12411174D01*
X15173277Y-12411174D02*
X15192325Y-12401650D01*
X15192325Y-12401650D02*
X15230420Y-12401650D01*
X15230420Y-12401650D02*
X15249468Y-12411174D01*
X15249468Y-12411174D02*
X15258991Y-12430222D01*
X15258991Y-12430222D02*
X15258991Y-12449269D01*
X15258991Y-12449269D02*
X15163753Y-12468317D01*
X15335182Y-12525460D02*
X15354230Y-12534984D01*
X15354230Y-12534984D02*
X15392325Y-12534984D01*
X15392325Y-12534984D02*
X15411372Y-12525460D01*
X15411372Y-12525460D02*
X15420896Y-12506412D01*
X15420896Y-12506412D02*
X15420896Y-12496888D01*
X15420896Y-12496888D02*
X15411372Y-12477841D01*
X15411372Y-12477841D02*
X15392325Y-12468317D01*
X15392325Y-12468317D02*
X15363753Y-12468317D01*
X15363753Y-12468317D02*
X15344706Y-12458793D01*
X15344706Y-12458793D02*
X15335182Y-12439746D01*
X15335182Y-12439746D02*
X15335182Y-12430222D01*
X15335182Y-12430222D02*
X15344706Y-12411174D01*
X15344706Y-12411174D02*
X15363753Y-12401650D01*
X15363753Y-12401650D02*
X15392325Y-12401650D01*
X15392325Y-12401650D02*
X15411372Y-12411174D01*
X15487563Y-12611174D02*
X15497087Y-12601650D01*
X15497087Y-12601650D02*
X15516134Y-12573079D01*
X15516134Y-12573079D02*
X15525658Y-12554031D01*
X15525658Y-12554031D02*
X15535182Y-12525460D01*
X15535182Y-12525460D02*
X15544706Y-12477841D01*
X15544706Y-12477841D02*
X15544706Y-12439746D01*
X15544706Y-12439746D02*
X15535182Y-12392127D01*
X15535182Y-12392127D02*
X15525658Y-12363555D01*
X15525658Y-12363555D02*
X15516134Y-12344508D01*
X15516134Y-12344508D02*
X15497087Y-12315936D01*
X15497087Y-12315936D02*
X15487563Y-12306412D01*
X15849468Y-12611174D02*
X15839944Y-12601650D01*
X15839944Y-12601650D02*
X15820896Y-12573079D01*
X15820896Y-12573079D02*
X15811372Y-12554031D01*
X15811372Y-12554031D02*
X15801849Y-12525460D01*
X15801849Y-12525460D02*
X15792325Y-12477841D01*
X15792325Y-12477841D02*
X15792325Y-12439746D01*
X15792325Y-12439746D02*
X15801849Y-12392127D01*
X15801849Y-12392127D02*
X15811372Y-12363555D01*
X15811372Y-12363555D02*
X15820896Y-12344508D01*
X15820896Y-12344508D02*
X15839944Y-12315936D01*
X15839944Y-12315936D02*
X15849468Y-12306412D01*
X15925658Y-12401650D02*
X15925658Y-12534984D01*
X15925658Y-12420698D02*
X15935182Y-12411174D01*
X15935182Y-12411174D02*
X15954230Y-12401650D01*
X15954230Y-12401650D02*
X15982801Y-12401650D01*
X15982801Y-12401650D02*
X16001849Y-12411174D01*
X16001849Y-12411174D02*
X16011372Y-12430222D01*
X16011372Y-12430222D02*
X16011372Y-12534984D01*
X16135182Y-12534984D02*
X16116134Y-12525460D01*
X16116134Y-12525460D02*
X16106611Y-12515936D01*
X16106611Y-12515936D02*
X16097087Y-12496888D01*
X16097087Y-12496888D02*
X16097087Y-12439746D01*
X16097087Y-12439746D02*
X16106611Y-12420698D01*
X16106611Y-12420698D02*
X16116134Y-12411174D01*
X16116134Y-12411174D02*
X16135182Y-12401650D01*
X16135182Y-12401650D02*
X16163753Y-12401650D01*
X16163753Y-12401650D02*
X16182801Y-12411174D01*
X16182801Y-12411174D02*
X16192325Y-12420698D01*
X16192325Y-12420698D02*
X16201849Y-12439746D01*
X16201849Y-12439746D02*
X16201849Y-12496888D01*
X16201849Y-12496888D02*
X16192325Y-12515936D01*
X16192325Y-12515936D02*
X16182801Y-12525460D01*
X16182801Y-12525460D02*
X16163753Y-12534984D01*
X16163753Y-12534984D02*
X16135182Y-12534984D01*
X16258992Y-12401650D02*
X16335182Y-12401650D01*
X16287563Y-12334984D02*
X16287563Y-12506412D01*
X16287563Y-12506412D02*
X16297087Y-12525460D01*
X16297087Y-12525460D02*
X16316134Y-12534984D01*
X16316134Y-12534984D02*
X16335182Y-12534984D01*
X16554230Y-12401650D02*
X16554230Y-12601650D01*
X16554230Y-12411174D02*
X16573277Y-12401650D01*
X16573277Y-12401650D02*
X16611373Y-12401650D01*
X16611373Y-12401650D02*
X16630420Y-12411174D01*
X16630420Y-12411174D02*
X16639944Y-12420698D01*
X16639944Y-12420698D02*
X16649468Y-12439746D01*
X16649468Y-12439746D02*
X16649468Y-12496888D01*
X16649468Y-12496888D02*
X16639944Y-12515936D01*
X16639944Y-12515936D02*
X16630420Y-12525460D01*
X16630420Y-12525460D02*
X16611373Y-12534984D01*
X16611373Y-12534984D02*
X16573277Y-12534984D01*
X16573277Y-12534984D02*
X16554230Y-12525460D01*
X16763753Y-12534984D02*
X16744706Y-12525460D01*
X16744706Y-12525460D02*
X16735182Y-12506412D01*
X16735182Y-12506412D02*
X16735182Y-12334984D01*
X16925658Y-12534984D02*
X16925658Y-12430222D01*
X16925658Y-12430222D02*
X16916135Y-12411174D01*
X16916135Y-12411174D02*
X16897087Y-12401650D01*
X16897087Y-12401650D02*
X16858992Y-12401650D01*
X16858992Y-12401650D02*
X16839944Y-12411174D01*
X16925658Y-12525460D02*
X16906611Y-12534984D01*
X16906611Y-12534984D02*
X16858992Y-12534984D01*
X16858992Y-12534984D02*
X16839944Y-12525460D01*
X16839944Y-12525460D02*
X16830420Y-12506412D01*
X16830420Y-12506412D02*
X16830420Y-12487365D01*
X16830420Y-12487365D02*
X16839944Y-12468317D01*
X16839944Y-12468317D02*
X16858992Y-12458793D01*
X16858992Y-12458793D02*
X16906611Y-12458793D01*
X16906611Y-12458793D02*
X16925658Y-12449269D01*
X16992325Y-12401650D02*
X17068515Y-12401650D01*
X17020896Y-12334984D02*
X17020896Y-12506412D01*
X17020896Y-12506412D02*
X17030420Y-12525460D01*
X17030420Y-12525460D02*
X17049468Y-12534984D01*
X17049468Y-12534984D02*
X17068515Y-12534984D01*
X17211373Y-12525460D02*
X17192325Y-12534984D01*
X17192325Y-12534984D02*
X17154230Y-12534984D01*
X17154230Y-12534984D02*
X17135182Y-12525460D01*
X17135182Y-12525460D02*
X17125658Y-12506412D01*
X17125658Y-12506412D02*
X17125658Y-12430222D01*
X17125658Y-12430222D02*
X17135182Y-12411174D01*
X17135182Y-12411174D02*
X17154230Y-12401650D01*
X17154230Y-12401650D02*
X17192325Y-12401650D01*
X17192325Y-12401650D02*
X17211373Y-12411174D01*
X17211373Y-12411174D02*
X17220896Y-12430222D01*
X17220896Y-12430222D02*
X17220896Y-12449269D01*
X17220896Y-12449269D02*
X17125658Y-12468317D01*
X17392325Y-12534984D02*
X17392325Y-12334984D01*
X17392325Y-12525460D02*
X17373277Y-12534984D01*
X17373277Y-12534984D02*
X17335182Y-12534984D01*
X17335182Y-12534984D02*
X17316135Y-12525460D01*
X17316135Y-12525460D02*
X17306611Y-12515936D01*
X17306611Y-12515936D02*
X17297087Y-12496888D01*
X17297087Y-12496888D02*
X17297087Y-12439746D01*
X17297087Y-12439746D02*
X17306611Y-12420698D01*
X17306611Y-12420698D02*
X17316135Y-12411174D01*
X17316135Y-12411174D02*
X17335182Y-12401650D01*
X17335182Y-12401650D02*
X17373277Y-12401650D01*
X17373277Y-12401650D02*
X17392325Y-12411174D01*
X17468516Y-12611174D02*
X17478039Y-12601650D01*
X17478039Y-12601650D02*
X17497087Y-12573079D01*
X17497087Y-12573079D02*
X17506611Y-12554031D01*
X17506611Y-12554031D02*
X17516135Y-12525460D01*
X17516135Y-12525460D02*
X17525658Y-12477841D01*
X17525658Y-12477841D02*
X17525658Y-12439746D01*
X17525658Y-12439746D02*
X17516135Y-12392127D01*
X17516135Y-12392127D02*
X17506611Y-12363555D01*
X17506611Y-12363555D02*
X17497087Y-12344508D01*
X17497087Y-12344508D02*
X17478039Y-12315936D01*
X17478039Y-12315936D02*
X17468516Y-12306412D01*
M02*
