M48
; DRILL file {KiCad 8.0.4} date 2025-01-10T16:53:48-0500
; FORMAT={-:-/ absolute / metric / decimal}
; #@! TF.CreationDate,2025-01-10T16:53:48-05:00
; #@! TF.GenerationSoftware,Kicad,Pcbnew,8.0.4
; #@! TF.FileFunction,Plated,1,2,PTH
FMAT,2
METRIC
; #@! TA.AperFunction,Plated,PTH,ViaDrill
T1C0.300
; #@! TA.AperFunction,Plated,PTH,ComponentDrill
T2C1.040
; #@! TA.AperFunction,Plated,PTH,ComponentDrill
T3C1.194
; #@! TA.AperFunction,Plated,PTH,ComponentDrill
T4C3.454
%
G90
G05
T1
X117.0Y-79.0
X117.0Y-82.0
X133.0Y-79.0
X133.0Y-82.0
X136.0Y-79.0
X136.0Y-82.0
X139.0Y-79.0
X139.0Y-82.0
X142.0Y-79.0
X142.0Y-82.0
X145.0Y-82.0
X148.0Y-82.0
X148.0Y-85.0
X148.0Y-88.0
X148.0Y-91.0
X150.0Y-82.0
X150.0Y-85.0
X150.0Y-88.0
X150.0Y-91.0
X153.0Y-89.0
X153.0Y-91.0
X156.0Y-89.0
X156.0Y-91.0
X159.0Y-91.0
X162.0Y-91.0
X165.0Y-91.0
X168.0Y-79.0
X168.0Y-82.0
X168.0Y-85.0
X168.0Y-88.0
X168.0Y-91.0
X168.4Y-80.7
X172.8Y-80.7
X174.848Y-78.0
X189.7Y-78.3
T2
X119.89Y-79.425
X119.89Y-81.965
X122.43Y-79.425
X122.43Y-81.965
X124.97Y-79.425
X124.97Y-81.965
X127.51Y-79.425
X127.51Y-81.965
X130.05Y-79.425
X130.05Y-81.965
X152.89Y-79.2
X152.89Y-81.74
X155.43Y-79.2
X155.43Y-81.74
X157.97Y-79.2
X157.97Y-81.74
X160.51Y-79.2
X160.51Y-81.74
X163.05Y-79.2
X163.05Y-81.74
X185.93Y-79.175
X185.93Y-81.715
X188.47Y-79.175
X188.47Y-81.715
X191.01Y-79.175
X191.01Y-81.715
X193.55Y-79.175
X193.55Y-81.715
X196.09Y-79.175
X196.09Y-81.715
T3
X119.71Y-103.87
X119.71Y-108.87
X119.71Y-113.87
X120.01Y-87.18
X120.01Y-92.18
X120.01Y-97.18
X126.71Y-103.87
X126.71Y-108.87
X126.71Y-113.87
X127.01Y-87.18
X127.01Y-92.18
X127.01Y-97.18
X189.44Y-87.45
X189.44Y-92.45
X189.44Y-97.45
X189.48Y-104.36
X189.48Y-109.36
X189.48Y-114.36
X196.44Y-87.45
X196.44Y-92.45
X196.44Y-97.45
X196.48Y-104.36
X196.48Y-109.36
X196.48Y-114.36
T4
X134.975Y-86.355
X134.975Y-91.925
X134.975Y-97.495
X134.975Y-103.055
X134.975Y-108.625
X134.975Y-114.195
X180.975Y-86.355
X180.975Y-91.925
X180.975Y-97.495
X180.975Y-103.055
X180.975Y-108.625
X180.975Y-114.195
M30
