%TF.GenerationSoftware,KiCad,Pcbnew,8.0.4*%
%TF.CreationDate,2025-01-10T16:53:37-05:00*%
%TF.ProjectId,X17-ESC-Adapter,5831372d-4553-4432-9d41-646170746572,rev?*%
%TF.SameCoordinates,Original*%
%TF.FileFunction,Profile,NP*%
%FSLAX46Y46*%
G04 Gerber Fmt 4.6, Leading zero omitted, Abs format (unit mm)*
G04 Created by KiCad (PCBNEW 8.0.4) date 2025-01-10 16:53:37*
%MOMM*%
%LPD*%
G01*
G04 APERTURE LIST*
%TA.AperFunction,Profile*%
%ADD10C,0.050000*%
%TD*%
G04 APERTURE END LIST*
D10*
X137884001Y-84493935D02*
G75*
G02*
X138515336Y-83859010I634799J135D01*
G01*
X107150000Y-118000000D02*
X107150000Y-76852000D01*
X178630105Y-118005533D02*
G75*
G02*
X178010001Y-117400000I14895J635533D01*
G01*
X170030000Y-91640000D02*
X169989186Y-84355661D01*
X145700525Y-83887754D02*
X138515297Y-83851833D01*
X178016000Y-84343286D02*
X178010000Y-117400000D01*
X137249000Y-118000000D02*
X107150000Y-118000000D01*
X137884000Y-84493154D02*
X137884000Y-117365000D01*
X146378901Y-84508446D02*
X146361101Y-91673115D01*
X147000000Y-92300000D02*
G75*
G02*
X146361119Y-91673115I200J639200D01*
G01*
X178630000Y-118010000D02*
X208729000Y-118010000D01*
X170621311Y-83718812D02*
X177378128Y-83708291D01*
X145700525Y-83887754D02*
G75*
G02*
X146378869Y-84508446I47375J-629246D01*
G01*
X208729000Y-118010000D02*
X208750000Y-76852000D01*
X208750000Y-76852000D02*
X107150000Y-76852000D01*
X177378128Y-83708291D02*
G75*
G02*
X178015915Y-84343286I2872J-634909D01*
G01*
X137884000Y-117365000D02*
G75*
G02*
X137249000Y-118000000I-635000J0D01*
G01*
X147000000Y-92295200D02*
X169365004Y-92295199D01*
X169989186Y-84355661D02*
G75*
G02*
X170621311Y-83718790I635014J1861D01*
G01*
X170030000Y-91640000D02*
G75*
G02*
X169355779Y-92292075I-674200J22500D01*
G01*
M02*
