%TF.GenerationSoftware,KiCad,Pcbnew,8.0.4*%
%TF.CreationDate,2025-01-10T16:53:36-05:00*%
%TF.ProjectId,X17-ESC-Adapter,5831372d-4553-4432-9d41-646170746572,rev?*%
%TF.SameCoordinates,Original*%
%TF.FileFunction,Soldermask,Top*%
%TF.FilePolarity,Negative*%
%FSLAX46Y46*%
G04 Gerber Fmt 4.6, Leading zero omitted, Abs format (unit mm)*
G04 Created by KiCad (PCBNEW 8.0.4) date 2025-01-10 16:53:36*
%MOMM*%
%LPD*%
G01*
G04 APERTURE LIST*
G04 Aperture macros list*
%AMRoundRect*
0 Rectangle with rounded corners*
0 $1 Rounding radius*
0 $2 $3 $4 $5 $6 $7 $8 $9 X,Y pos of 4 corners*
0 Add a 4 corners polygon primitive as box body*
4,1,4,$2,$3,$4,$5,$6,$7,$8,$9,$2,$3,0*
0 Add four circle primitives for the rounded corners*
1,1,$1+$1,$2,$3*
1,1,$1+$1,$4,$5*
1,1,$1+$1,$6,$7*
1,1,$1+$1,$8,$9*
0 Add four rect primitives between the rounded corners*
20,1,$1+$1,$2,$3,$4,$5,0*
20,1,$1+$1,$4,$5,$6,$7,0*
20,1,$1+$1,$6,$7,$8,$9,0*
20,1,$1+$1,$8,$9,$2,$3,0*%
G04 Aperture macros list end*
%ADD10C,3.810000*%
%ADD11RoundRect,0.920750X3.587750X-0.920750X3.587750X0.920750X-3.587750X0.920750X-3.587750X-0.920750X0*%
%ADD12RoundRect,0.200000X0.200000X0.275000X-0.200000X0.275000X-0.200000X-0.275000X0.200000X-0.275000X0*%
%ADD13C,1.701800*%
%ADD14C,1.594000*%
%ADD15RoundRect,0.102000X-0.695000X-0.695000X0.695000X-0.695000X0.695000X0.695000X-0.695000X0.695000X0*%
%ADD16RoundRect,0.102000X0.695000X0.695000X-0.695000X0.695000X-0.695000X-0.695000X0.695000X-0.695000X0*%
%ADD17C,5.004000*%
%ADD18RoundRect,0.102000X-2.000000X-1.000000X2.000000X-1.000000X2.000000X1.000000X-2.000000X1.000000X0*%
%ADD19R,0.660400X1.549400*%
%ADD20R,1.295400X1.905000*%
%ADD21RoundRect,0.243750X0.456250X-0.243750X0.456250X0.243750X-0.456250X0.243750X-0.456250X-0.243750X0*%
G04 APERTURE END LIST*
D10*
%TO.C,H1*%
X110890000Y-80460000D03*
%TD*%
%TO.C,H1*%
X205000000Y-80550000D03*
%TD*%
D11*
%TO.C,J3*%
X112500000Y-92500000D03*
%TD*%
%TO.C,J11*%
X203540000Y-104570000D03*
%TD*%
%TO.C,J9*%
X203440000Y-98020000D03*
%TD*%
D12*
%TO.C,R2*%
X150225000Y-79200000D03*
X148575000Y-79200000D03*
%TD*%
D13*
%TO.C,ESC2*%
X119710000Y-113870000D03*
X126710001Y-113870000D03*
X119710000Y-108870000D03*
X126710001Y-108870000D03*
X119710000Y-103870000D03*
X126710001Y-103870000D03*
%TD*%
%TO.C,ESC1*%
X120010000Y-97180000D03*
X127010001Y-97180000D03*
X120010000Y-92180000D03*
X127010001Y-92180000D03*
X120010000Y-87180000D03*
X127010001Y-87180000D03*
%TD*%
D14*
%TO.C,J2*%
X152890000Y-79200000D03*
X152890000Y-81740000D03*
X155430000Y-79200000D03*
X155430000Y-81740000D03*
X157970000Y-79200000D03*
X157970000Y-81740000D03*
X160510000Y-79200000D03*
X160510000Y-81740000D03*
X163050000Y-79200000D03*
D15*
X163050000Y-81740000D03*
D16*
X119890000Y-79425000D03*
D14*
X119890000Y-81965000D03*
X122430000Y-79425000D03*
X122430000Y-81965000D03*
X124970000Y-79425000D03*
X124970000Y-81965000D03*
X127510000Y-79425000D03*
X127510000Y-81965000D03*
X130050000Y-79425000D03*
X130050000Y-81965000D03*
X193550000Y-79175000D03*
X196090000Y-79175000D03*
D15*
X196090000Y-81715000D03*
D14*
X193550000Y-81715000D03*
X191010000Y-79175000D03*
X191010000Y-81715000D03*
X188470000Y-79175000D03*
X188470000Y-81715000D03*
X185930000Y-79175000D03*
X185930000Y-81715000D03*
%TD*%
D11*
%TO.C,J10*%
X203400000Y-92610000D03*
%TD*%
D17*
%TO.C,ESC5*%
X134975000Y-86355000D03*
X134975000Y-91925000D03*
X134975000Y-97495000D03*
X134975000Y-103055000D03*
X134975000Y-108625000D03*
X134975000Y-114195000D03*
X180975000Y-114195000D03*
X180975000Y-108625000D03*
X180975000Y-103055000D03*
X180975000Y-97495000D03*
X180975000Y-91925000D03*
X180975000Y-86355000D03*
D18*
X153485000Y-86605000D03*
X162465000Y-86605000D03*
%TD*%
D11*
%TO.C,J1*%
X112500000Y-98000000D03*
%TD*%
D19*
%TO.C,BM08B-SRSS-TBLFSN1*%
X178800001Y-79371600D03*
X177800000Y-79371600D03*
X176800000Y-79371600D03*
X175799999Y-79371600D03*
X174800001Y-79371600D03*
X173800000Y-79371600D03*
X172800000Y-79371600D03*
X171799999Y-79371600D03*
D20*
X170499999Y-81896599D03*
X180100001Y-81896599D03*
%TD*%
D11*
%TO.C,J5*%
X112500000Y-115000000D03*
%TD*%
%TO.C,J4*%
X112390000Y-86750000D03*
%TD*%
D13*
%TO.C,ESC4*%
X196480001Y-104360000D03*
X189480000Y-104360000D03*
X196480001Y-109360000D03*
X189480000Y-109360000D03*
X196480001Y-114360000D03*
X189480000Y-114360000D03*
%TD*%
D11*
%TO.C,J7*%
X112500000Y-103500000D03*
%TD*%
D21*
%TO.C,D1*%
X146400000Y-81137500D03*
X146400000Y-79262500D03*
%TD*%
D11*
%TO.C,J12*%
X203590000Y-109890000D03*
%TD*%
%TO.C,J13*%
X203530000Y-114700000D03*
%TD*%
%TO.C,J6*%
X112500000Y-109000000D03*
%TD*%
D13*
%TO.C,ESC3*%
X196440000Y-87450000D03*
X189439999Y-87450000D03*
X196440000Y-92450000D03*
X189439999Y-92450000D03*
X196440000Y-97450000D03*
X189439999Y-97450000D03*
%TD*%
D11*
%TO.C,J8*%
X203370000Y-87210000D03*
%TD*%
M02*
