%TF.GenerationSoftware,KiCad,Pcbnew,8.0.4*%
%TF.CreationDate,2025-01-10T16:53:36-05:00*%
%TF.ProjectId,X17-ESC-Adapter,5831372d-4553-4432-9d41-646170746572,rev?*%
%TF.SameCoordinates,Original*%
%TF.FileFunction,Legend,Bot*%
%TF.FilePolarity,Positive*%
%FSLAX46Y46*%
G04 Gerber Fmt 4.6, Leading zero omitted, Abs format (unit mm)*
G04 Created by KiCad (PCBNEW 8.0.4) date 2025-01-10 16:53:36*
%MOMM*%
%LPD*%
G01*
G04 APERTURE LIST*
G04 Aperture macros list*
%AMRoundRect*
0 Rectangle with rounded corners*
0 $1 Rounding radius*
0 $2 $3 $4 $5 $6 $7 $8 $9 X,Y pos of 4 corners*
0 Add a 4 corners polygon primitive as box body*
4,1,4,$2,$3,$4,$5,$6,$7,$8,$9,$2,$3,0*
0 Add four circle primitives for the rounded corners*
1,1,$1+$1,$2,$3*
1,1,$1+$1,$4,$5*
1,1,$1+$1,$6,$7*
1,1,$1+$1,$8,$9*
0 Add four rect primitives between the rounded corners*
20,1,$1+$1,$2,$3,$4,$5,0*
20,1,$1+$1,$4,$5,$6,$7,0*
20,1,$1+$1,$6,$7,$8,$9,0*
20,1,$1+$1,$8,$9,$2,$3,0*%
G04 Aperture macros list end*
%ADD10C,0.508000*%
%ADD11C,3.810000*%
%ADD12C,1.701800*%
%ADD13C,1.594000*%
%ADD14RoundRect,0.102000X-0.695000X-0.695000X0.695000X-0.695000X0.695000X0.695000X-0.695000X0.695000X0*%
%ADD15RoundRect,0.102000X0.695000X0.695000X-0.695000X0.695000X-0.695000X-0.695000X0.695000X-0.695000X0*%
%ADD16C,5.004000*%
G04 APERTURE END LIST*
D10*
%TO.C,ESC2*%
X120091000Y-116731300D02*
G75*
G02*
X119329000Y-116731300I-381000J0D01*
G01*
X119329000Y-116731300D02*
G75*
G02*
X120091000Y-116731300I381000J0D01*
G01*
%TO.C,ESC1*%
X120391000Y-100041300D02*
G75*
G02*
X119629000Y-100041300I-381000J0D01*
G01*
X119629000Y-100041300D02*
G75*
G02*
X120391000Y-100041300I381000J0D01*
G01*
%TO.C,BM08B-SRSS-TBLFSN1*%
X181446800Y-79371600D02*
G75*
G02*
X180684800Y-79371600I-381000J0D01*
G01*
X180684800Y-79371600D02*
G75*
G02*
X181446800Y-79371600I381000J0D01*
G01*
%TO.C,ESC4*%
X196861001Y-101498700D02*
G75*
G02*
X196099001Y-101498700I-381000J0D01*
G01*
X196099001Y-101498700D02*
G75*
G02*
X196861001Y-101498700I381000J0D01*
G01*
%TO.C,ESC3*%
X196821000Y-84588700D02*
G75*
G02*
X196059000Y-84588700I-381000J0D01*
G01*
X196059000Y-84588700D02*
G75*
G02*
X196821000Y-84588700I381000J0D01*
G01*
%TD*%
%LPC*%
D11*
%TO.C,H1*%
X110890000Y-80460000D03*
%TD*%
%TO.C,H1*%
X205000000Y-80550000D03*
%TD*%
D12*
%TO.C,ESC2*%
X119710000Y-113870000D03*
X126710001Y-113870000D03*
X119710000Y-108870000D03*
X126710001Y-108870000D03*
X119710000Y-103870000D03*
X126710001Y-103870000D03*
%TD*%
%TO.C,ESC1*%
X120010000Y-97180000D03*
X127010001Y-97180000D03*
X120010000Y-92180000D03*
X127010001Y-92180000D03*
X120010000Y-87180000D03*
X127010001Y-87180000D03*
%TD*%
D13*
%TO.C,J2*%
X152890000Y-79200000D03*
X152890000Y-81740000D03*
X155430000Y-79200000D03*
X155430000Y-81740000D03*
X157970000Y-79200000D03*
X157970000Y-81740000D03*
X160510000Y-79200000D03*
X160510000Y-81740000D03*
X163050000Y-79200000D03*
D14*
X163050000Y-81740000D03*
D15*
X119890000Y-79425000D03*
D13*
X119890000Y-81965000D03*
X122430000Y-79425000D03*
X122430000Y-81965000D03*
X124970000Y-79425000D03*
X124970000Y-81965000D03*
X127510000Y-79425000D03*
X127510000Y-81965000D03*
X130050000Y-79425000D03*
X130050000Y-81965000D03*
X193550000Y-79175000D03*
X196090000Y-79175000D03*
D14*
X196090000Y-81715000D03*
D13*
X193550000Y-81715000D03*
X191010000Y-79175000D03*
X191010000Y-81715000D03*
X188470000Y-79175000D03*
X188470000Y-81715000D03*
X185930000Y-79175000D03*
X185930000Y-81715000D03*
%TD*%
D16*
%TO.C,ESC5*%
X134975000Y-86355000D03*
X134975000Y-91925000D03*
X134975000Y-97495000D03*
X134975000Y-103055000D03*
X134975000Y-108625000D03*
X134975000Y-114195000D03*
X180975000Y-114195000D03*
X180975000Y-108625000D03*
X180975000Y-103055000D03*
X180975000Y-97495000D03*
X180975000Y-91925000D03*
X180975000Y-86355000D03*
%TD*%
D12*
%TO.C,ESC4*%
X196480001Y-104360000D03*
X189480000Y-104360000D03*
X196480001Y-109360000D03*
X189480000Y-109360000D03*
X196480001Y-114360000D03*
X189480000Y-114360000D03*
%TD*%
%TO.C,ESC3*%
X196440000Y-87450000D03*
X189439999Y-87450000D03*
X196440000Y-92450000D03*
X189439999Y-92450000D03*
X196440000Y-97450000D03*
X189439999Y-97450000D03*
%TD*%
%LPD*%
M02*
