%TF.GenerationSoftware,KiCad,Pcbnew,8.0.4*%
%TF.CreationDate,2025-01-10T16:53:50-05:00*%
%TF.ProjectId,X17-ESC-Adapter,5831372d-4553-4432-9d41-646170746572,rev?*%
%TF.SameCoordinates,Original*%
%TF.FileFunction,Drillmap*%
%TF.FilePolarity,Positive*%
%FSLAX45Y45*%
G04 Gerber Fmt 4.5, Leading zero omitted, Abs format (unit mm)*
G04 Created by KiCad (PCBNEW 8.0.4) date 2025-01-10 16:53:50*
%MOMM*%
%LPD*%
G01*
G04 APERTURE LIST*
%ADD10C,0.050000*%
%ADD11C,0.200000*%
%ADD12C,0.100000*%
%ADD13C,0.104000*%
%ADD14C,0.119380*%
%ADD15C,0.345440*%
G04 APERTURE END LIST*
D10*
X13788400Y-8449394D02*
G75*
G02*
X13851534Y-8385901I63480J14D01*
G01*
X10715000Y-11800000D02*
X10715000Y-7685200D01*
X17863011Y-11800553D02*
G75*
G02*
X17801000Y-11740000I1490J63553D01*
G01*
X17003000Y-9164000D02*
X16998919Y-8435566D01*
X14570052Y-8388775D02*
X13851530Y-8385183D01*
X17801600Y-8434329D02*
X17801000Y-11740000D01*
X13724900Y-11800000D02*
X10715000Y-11800000D01*
X13788400Y-8449315D02*
X13788400Y-11736500D01*
X14637890Y-8450845D02*
X14636110Y-9167312D01*
X14700000Y-9230000D02*
G75*
G02*
X14636112Y-9167312I20J63920D01*
G01*
X17863000Y-11801000D02*
X20872900Y-11801000D01*
X17062131Y-8371881D02*
X17737813Y-8370829D01*
X14570052Y-8388775D02*
G75*
G02*
X14637887Y-8450845I4738J-62925D01*
G01*
X20872900Y-11801000D02*
X20875000Y-7685200D01*
X20875000Y-7685200D02*
X10715000Y-7685200D01*
X17737813Y-8370829D02*
G75*
G02*
X17801592Y-8434329I287J-63491D01*
G01*
X13788400Y-11736500D02*
G75*
G02*
X13724900Y-11800000I-63500J0D01*
G01*
X14700000Y-9229520D02*
X16936500Y-9229520D01*
X16998919Y-8435566D02*
G75*
G02*
X17062131Y-8371879I63501J186D01*
G01*
X17003000Y-9164000D02*
G75*
G02*
X16935578Y-9229208I-67420J2250D01*
G01*
D11*
D12*
X11685000Y-7885000D02*
X11715000Y-7915000D01*
X11715000Y-7885000D02*
X11685000Y-7915000D01*
X11685000Y-8185000D02*
X11715000Y-8215000D01*
X11715000Y-8185000D02*
X11685000Y-8215000D01*
X13285000Y-7885000D02*
X13315000Y-7915000D01*
X13315000Y-7885000D02*
X13285000Y-7915000D01*
X13285000Y-8185000D02*
X13315000Y-8215000D01*
X13315000Y-8185000D02*
X13285000Y-8215000D01*
X13585000Y-7885000D02*
X13615000Y-7915000D01*
X13615000Y-7885000D02*
X13585000Y-7915000D01*
X13585000Y-8185000D02*
X13615000Y-8215000D01*
X13615000Y-8185000D02*
X13585000Y-8215000D01*
X13885000Y-7885000D02*
X13915000Y-7915000D01*
X13915000Y-7885000D02*
X13885000Y-7915000D01*
X13885000Y-8185000D02*
X13915000Y-8215000D01*
X13915000Y-8185000D02*
X13885000Y-8215000D01*
X14185000Y-7885000D02*
X14215000Y-7915000D01*
X14215000Y-7885000D02*
X14185000Y-7915000D01*
X14185000Y-8185000D02*
X14215000Y-8215000D01*
X14215000Y-8185000D02*
X14185000Y-8215000D01*
X14485000Y-8185000D02*
X14515000Y-8215000D01*
X14515000Y-8185000D02*
X14485000Y-8215000D01*
X14785000Y-8185000D02*
X14815000Y-8215000D01*
X14815000Y-8185000D02*
X14785000Y-8215000D01*
X14785000Y-8485000D02*
X14815000Y-8515000D01*
X14815000Y-8485000D02*
X14785000Y-8515000D01*
X14785000Y-8785000D02*
X14815000Y-8815000D01*
X14815000Y-8785000D02*
X14785000Y-8815000D01*
X14785000Y-9085000D02*
X14815000Y-9115000D01*
X14815000Y-9085000D02*
X14785000Y-9115000D01*
X14985000Y-8185000D02*
X15015000Y-8215000D01*
X15015000Y-8185000D02*
X14985000Y-8215000D01*
X14985000Y-8485000D02*
X15015000Y-8515000D01*
X15015000Y-8485000D02*
X14985000Y-8515000D01*
X14985000Y-8785000D02*
X15015000Y-8815000D01*
X15015000Y-8785000D02*
X14985000Y-8815000D01*
X14985000Y-9085000D02*
X15015000Y-9115000D01*
X15015000Y-9085000D02*
X14985000Y-9115000D01*
X15285000Y-8885000D02*
X15315000Y-8915000D01*
X15315000Y-8885000D02*
X15285000Y-8915000D01*
X15285000Y-9085000D02*
X15315000Y-9115000D01*
X15315000Y-9085000D02*
X15285000Y-9115000D01*
X15585000Y-8885000D02*
X15615000Y-8915000D01*
X15615000Y-8885000D02*
X15585000Y-8915000D01*
X15585000Y-9085000D02*
X15615000Y-9115000D01*
X15615000Y-9085000D02*
X15585000Y-9115000D01*
X15885000Y-9085000D02*
X15915000Y-9115000D01*
X15915000Y-9085000D02*
X15885000Y-9115000D01*
X16185000Y-9085000D02*
X16215000Y-9115000D01*
X16215000Y-9085000D02*
X16185000Y-9115000D01*
X16485000Y-9085000D02*
X16515000Y-9115000D01*
X16515000Y-9085000D02*
X16485000Y-9115000D01*
X16785000Y-7885000D02*
X16815000Y-7915000D01*
X16815000Y-7885000D02*
X16785000Y-7915000D01*
X16785000Y-8185000D02*
X16815000Y-8215000D01*
X16815000Y-8185000D02*
X16785000Y-8215000D01*
X16785000Y-8485000D02*
X16815000Y-8515000D01*
X16815000Y-8485000D02*
X16785000Y-8515000D01*
X16785000Y-8785000D02*
X16815000Y-8815000D01*
X16815000Y-8785000D02*
X16785000Y-8815000D01*
X16785000Y-9085000D02*
X16815000Y-9115000D01*
X16815000Y-9085000D02*
X16785000Y-9115000D01*
X16825000Y-8055000D02*
X16855000Y-8085000D01*
X16855000Y-8055000D02*
X16825000Y-8085000D01*
X17265000Y-8055000D02*
X17295000Y-8085000D01*
X17295000Y-8055000D02*
X17265000Y-8085000D01*
X17469845Y-7785000D02*
X17499845Y-7815000D01*
X17499845Y-7785000D02*
X17469845Y-7815000D01*
X18955000Y-7815000D02*
X18985000Y-7845000D01*
X18985000Y-7815000D02*
X18955000Y-7845000D01*
D13*
X12041000Y-7942500D02*
G75*
G02*
X11937000Y-7942500I-52000J0D01*
G01*
X11937000Y-7942500D02*
G75*
G02*
X12041000Y-7942500I52000J0D01*
G01*
X12041000Y-8196500D02*
G75*
G02*
X11937000Y-8196500I-52000J0D01*
G01*
X11937000Y-8196500D02*
G75*
G02*
X12041000Y-8196500I52000J0D01*
G01*
X12295000Y-7942500D02*
G75*
G02*
X12191000Y-7942500I-52000J0D01*
G01*
X12191000Y-7942500D02*
G75*
G02*
X12295000Y-7942500I52000J0D01*
G01*
X12295000Y-8196500D02*
G75*
G02*
X12191000Y-8196500I-52000J0D01*
G01*
X12191000Y-8196500D02*
G75*
G02*
X12295000Y-8196500I52000J0D01*
G01*
X12549000Y-7942500D02*
G75*
G02*
X12445000Y-7942500I-52000J0D01*
G01*
X12445000Y-7942500D02*
G75*
G02*
X12549000Y-7942500I52000J0D01*
G01*
X12549000Y-8196500D02*
G75*
G02*
X12445000Y-8196500I-52000J0D01*
G01*
X12445000Y-8196500D02*
G75*
G02*
X12549000Y-8196500I52000J0D01*
G01*
X12803000Y-7942500D02*
G75*
G02*
X12699000Y-7942500I-52000J0D01*
G01*
X12699000Y-7942500D02*
G75*
G02*
X12803000Y-7942500I52000J0D01*
G01*
X12803000Y-8196500D02*
G75*
G02*
X12699000Y-8196500I-52000J0D01*
G01*
X12699000Y-8196500D02*
G75*
G02*
X12803000Y-8196500I52000J0D01*
G01*
X13057000Y-7942500D02*
G75*
G02*
X12953000Y-7942500I-52000J0D01*
G01*
X12953000Y-7942500D02*
G75*
G02*
X13057000Y-7942500I52000J0D01*
G01*
X13057000Y-8196500D02*
G75*
G02*
X12953000Y-8196500I-52000J0D01*
G01*
X12953000Y-8196500D02*
G75*
G02*
X13057000Y-8196500I52000J0D01*
G01*
X15341000Y-7920000D02*
G75*
G02*
X15237000Y-7920000I-52000J0D01*
G01*
X15237000Y-7920000D02*
G75*
G02*
X15341000Y-7920000I52000J0D01*
G01*
X15341000Y-8174000D02*
G75*
G02*
X15237000Y-8174000I-52000J0D01*
G01*
X15237000Y-8174000D02*
G75*
G02*
X15341000Y-8174000I52000J0D01*
G01*
X15595000Y-7920000D02*
G75*
G02*
X15491000Y-7920000I-52000J0D01*
G01*
X15491000Y-7920000D02*
G75*
G02*
X15595000Y-7920000I52000J0D01*
G01*
X15595000Y-8174000D02*
G75*
G02*
X15491000Y-8174000I-52000J0D01*
G01*
X15491000Y-8174000D02*
G75*
G02*
X15595000Y-8174000I52000J0D01*
G01*
X15849000Y-7920000D02*
G75*
G02*
X15745000Y-7920000I-52000J0D01*
G01*
X15745000Y-7920000D02*
G75*
G02*
X15849000Y-7920000I52000J0D01*
G01*
X15849000Y-8174000D02*
G75*
G02*
X15745000Y-8174000I-52000J0D01*
G01*
X15745000Y-8174000D02*
G75*
G02*
X15849000Y-8174000I52000J0D01*
G01*
X16103000Y-7920000D02*
G75*
G02*
X15999000Y-7920000I-52000J0D01*
G01*
X15999000Y-7920000D02*
G75*
G02*
X16103000Y-7920000I52000J0D01*
G01*
X16103000Y-8174000D02*
G75*
G02*
X15999000Y-8174000I-52000J0D01*
G01*
X15999000Y-8174000D02*
G75*
G02*
X16103000Y-8174000I52000J0D01*
G01*
X16357000Y-7920000D02*
G75*
G02*
X16253000Y-7920000I-52000J0D01*
G01*
X16253000Y-7920000D02*
G75*
G02*
X16357000Y-7920000I52000J0D01*
G01*
X16357000Y-8174000D02*
G75*
G02*
X16253000Y-8174000I-52000J0D01*
G01*
X16253000Y-8174000D02*
G75*
G02*
X16357000Y-8174000I52000J0D01*
G01*
X18645000Y-7917500D02*
G75*
G02*
X18541000Y-7917500I-52000J0D01*
G01*
X18541000Y-7917500D02*
G75*
G02*
X18645000Y-7917500I52000J0D01*
G01*
X18645000Y-8171500D02*
G75*
G02*
X18541000Y-8171500I-52000J0D01*
G01*
X18541000Y-8171500D02*
G75*
G02*
X18645000Y-8171500I52000J0D01*
G01*
X18899000Y-7917500D02*
G75*
G02*
X18795000Y-7917500I-52000J0D01*
G01*
X18795000Y-7917500D02*
G75*
G02*
X18899000Y-7917500I52000J0D01*
G01*
X18899000Y-8171500D02*
G75*
G02*
X18795000Y-8171500I-52000J0D01*
G01*
X18795000Y-8171500D02*
G75*
G02*
X18899000Y-8171500I52000J0D01*
G01*
X19153000Y-7917500D02*
G75*
G02*
X19049000Y-7917500I-52000J0D01*
G01*
X19049000Y-7917500D02*
G75*
G02*
X19153000Y-7917500I52000J0D01*
G01*
X19153000Y-8171500D02*
G75*
G02*
X19049000Y-8171500I-52000J0D01*
G01*
X19049000Y-8171500D02*
G75*
G02*
X19153000Y-8171500I52000J0D01*
G01*
X19407000Y-7917500D02*
G75*
G02*
X19303000Y-7917500I-52000J0D01*
G01*
X19303000Y-7917500D02*
G75*
G02*
X19407000Y-7917500I52000J0D01*
G01*
X19407000Y-8171500D02*
G75*
G02*
X19303000Y-8171500I-52000J0D01*
G01*
X19303000Y-8171500D02*
G75*
G02*
X19407000Y-8171500I52000J0D01*
G01*
X19661000Y-7917500D02*
G75*
G02*
X19557000Y-7917500I-52000J0D01*
G01*
X19557000Y-7917500D02*
G75*
G02*
X19661000Y-7917500I52000J0D01*
G01*
X19661000Y-8171500D02*
G75*
G02*
X19557000Y-8171500I-52000J0D01*
G01*
X19557000Y-8171500D02*
G75*
G02*
X19661000Y-8171500I52000J0D01*
G01*
D14*
X11971000Y-10327310D02*
X11971000Y-10446690D01*
X11911310Y-10387000D02*
X12030690Y-10387000D01*
X11971000Y-10827310D02*
X11971000Y-10946690D01*
X11911310Y-10887000D02*
X12030690Y-10887000D01*
X11971000Y-11327310D02*
X11971000Y-11446690D01*
X11911310Y-11387000D02*
X12030690Y-11387000D01*
X12001000Y-8658310D02*
X12001000Y-8777690D01*
X11941310Y-8718000D02*
X12060690Y-8718000D01*
X12001000Y-9158310D02*
X12001000Y-9277690D01*
X11941310Y-9218000D02*
X12060690Y-9218000D01*
X12001000Y-9658310D02*
X12001000Y-9777690D01*
X11941310Y-9718000D02*
X12060690Y-9718000D01*
X12671000Y-10327310D02*
X12671000Y-10446690D01*
X12611310Y-10387000D02*
X12730690Y-10387000D01*
X12671000Y-10827310D02*
X12671000Y-10946690D01*
X12611310Y-10887000D02*
X12730690Y-10887000D01*
X12671000Y-11327310D02*
X12671000Y-11446690D01*
X12611310Y-11387000D02*
X12730690Y-11387000D01*
X12701000Y-8658310D02*
X12701000Y-8777690D01*
X12641310Y-8718000D02*
X12760690Y-8718000D01*
X12701000Y-9158310D02*
X12701000Y-9277690D01*
X12641310Y-9218000D02*
X12760690Y-9218000D01*
X12701000Y-9658310D02*
X12701000Y-9777690D01*
X12641310Y-9718000D02*
X12760690Y-9718000D01*
X18944000Y-8685310D02*
X18944000Y-8804690D01*
X18884310Y-8745000D02*
X19003690Y-8745000D01*
X18944000Y-9185310D02*
X18944000Y-9304690D01*
X18884310Y-9245000D02*
X19003690Y-9245000D01*
X18944000Y-9685310D02*
X18944000Y-9804690D01*
X18884310Y-9745000D02*
X19003690Y-9745000D01*
X18948000Y-10376310D02*
X18948000Y-10495690D01*
X18888310Y-10436000D02*
X19007690Y-10436000D01*
X18948000Y-10876310D02*
X18948000Y-10995690D01*
X18888310Y-10936000D02*
X19007690Y-10936000D01*
X18948000Y-11376310D02*
X18948000Y-11495690D01*
X18888310Y-11436000D02*
X19007690Y-11436000D01*
X19644000Y-8685310D02*
X19644000Y-8804690D01*
X19584310Y-8745000D02*
X19703690Y-8745000D01*
X19644000Y-9185310D02*
X19644000Y-9304690D01*
X19584310Y-9245000D02*
X19703690Y-9245000D01*
X19644000Y-9685310D02*
X19644000Y-9804690D01*
X19584310Y-9745000D02*
X19703690Y-9745000D01*
X19648000Y-10376310D02*
X19648000Y-10495690D01*
X19588310Y-10436000D02*
X19707690Y-10436000D01*
X19648000Y-10876310D02*
X19648000Y-10995690D01*
X19588310Y-10936000D02*
X19707690Y-10936000D01*
X19648000Y-11376310D02*
X19648000Y-11495690D01*
X19588310Y-11436000D02*
X19707690Y-11436000D01*
D15*
X13619633Y-8757633D02*
X13619633Y-8513367D01*
X13375367Y-8513367D01*
X13375367Y-8757633D01*
X13619633Y-8757633D01*
X13619633Y-9314633D02*
X13619633Y-9070367D01*
X13375367Y-9070367D01*
X13375367Y-9314633D01*
X13619633Y-9314633D01*
X13619633Y-9871633D02*
X13619633Y-9627367D01*
X13375367Y-9627367D01*
X13375367Y-9871633D01*
X13619633Y-9871633D01*
X13619633Y-10427633D02*
X13619633Y-10183367D01*
X13375367Y-10183367D01*
X13375367Y-10427633D01*
X13619633Y-10427633D01*
X13619633Y-10984633D02*
X13619633Y-10740367D01*
X13375367Y-10740367D01*
X13375367Y-10984633D01*
X13619633Y-10984633D01*
X13619633Y-11541633D02*
X13619633Y-11297367D01*
X13375367Y-11297367D01*
X13375367Y-11541633D01*
X13619633Y-11541633D01*
X18219633Y-8757633D02*
X18219633Y-8513367D01*
X17975367Y-8513367D01*
X17975367Y-8757633D01*
X18219633Y-8757633D01*
X18219633Y-9314633D02*
X18219633Y-9070367D01*
X17975367Y-9070367D01*
X17975367Y-9314633D01*
X18219633Y-9314633D01*
X18219633Y-9871633D02*
X18219633Y-9627367D01*
X17975367Y-9627367D01*
X17975367Y-9871633D01*
X18219633Y-9871633D01*
X18219633Y-10427633D02*
X18219633Y-10183367D01*
X17975367Y-10183367D01*
X17975367Y-10427633D01*
X18219633Y-10427633D01*
X18219633Y-10984633D02*
X18219633Y-10740367D01*
X17975367Y-10740367D01*
X17975367Y-10984633D01*
X18219633Y-10984633D01*
X18219633Y-11541633D02*
X18219633Y-11297367D01*
X17975367Y-11297367D01*
X17975367Y-11541633D01*
X18219633Y-11541633D01*
D11*
X10973277Y-12114984D02*
X10973277Y-11914984D01*
X10973277Y-11914984D02*
X11020896Y-11914984D01*
X11020896Y-11914984D02*
X11049467Y-11924508D01*
X11049467Y-11924508D02*
X11068515Y-11943555D01*
X11068515Y-11943555D02*
X11078039Y-11962603D01*
X11078039Y-11962603D02*
X11087563Y-12000698D01*
X11087563Y-12000698D02*
X11087563Y-12029269D01*
X11087563Y-12029269D02*
X11078039Y-12067365D01*
X11078039Y-12067365D02*
X11068515Y-12086412D01*
X11068515Y-12086412D02*
X11049467Y-12105460D01*
X11049467Y-12105460D02*
X11020896Y-12114984D01*
X11020896Y-12114984D02*
X10973277Y-12114984D01*
X11173277Y-12114984D02*
X11173277Y-11981650D01*
X11173277Y-12019746D02*
X11182801Y-12000698D01*
X11182801Y-12000698D02*
X11192324Y-11991174D01*
X11192324Y-11991174D02*
X11211372Y-11981650D01*
X11211372Y-11981650D02*
X11230420Y-11981650D01*
X11297086Y-12114984D02*
X11297086Y-11981650D01*
X11297086Y-11914984D02*
X11287562Y-11924508D01*
X11287562Y-11924508D02*
X11297086Y-11934031D01*
X11297086Y-11934031D02*
X11306610Y-11924508D01*
X11306610Y-11924508D02*
X11297086Y-11914984D01*
X11297086Y-11914984D02*
X11297086Y-11934031D01*
X11420896Y-12114984D02*
X11401848Y-12105460D01*
X11401848Y-12105460D02*
X11392324Y-12086412D01*
X11392324Y-12086412D02*
X11392324Y-11914984D01*
X11525658Y-12114984D02*
X11506610Y-12105460D01*
X11506610Y-12105460D02*
X11497086Y-12086412D01*
X11497086Y-12086412D02*
X11497086Y-11914984D01*
X11754229Y-12114984D02*
X11754229Y-11914984D01*
X11754229Y-11914984D02*
X11820896Y-12057841D01*
X11820896Y-12057841D02*
X11887562Y-11914984D01*
X11887562Y-11914984D02*
X11887562Y-12114984D01*
X12068515Y-12114984D02*
X12068515Y-12010222D01*
X12068515Y-12010222D02*
X12058991Y-11991174D01*
X12058991Y-11991174D02*
X12039943Y-11981650D01*
X12039943Y-11981650D02*
X12001848Y-11981650D01*
X12001848Y-11981650D02*
X11982801Y-11991174D01*
X12068515Y-12105460D02*
X12049467Y-12114984D01*
X12049467Y-12114984D02*
X12001848Y-12114984D01*
X12001848Y-12114984D02*
X11982801Y-12105460D01*
X11982801Y-12105460D02*
X11973277Y-12086412D01*
X11973277Y-12086412D02*
X11973277Y-12067365D01*
X11973277Y-12067365D02*
X11982801Y-12048317D01*
X11982801Y-12048317D02*
X12001848Y-12038793D01*
X12001848Y-12038793D02*
X12049467Y-12038793D01*
X12049467Y-12038793D02*
X12068515Y-12029269D01*
X12163753Y-11981650D02*
X12163753Y-12181650D01*
X12163753Y-11991174D02*
X12182801Y-11981650D01*
X12182801Y-11981650D02*
X12220896Y-11981650D01*
X12220896Y-11981650D02*
X12239943Y-11991174D01*
X12239943Y-11991174D02*
X12249467Y-12000698D01*
X12249467Y-12000698D02*
X12258991Y-12019746D01*
X12258991Y-12019746D02*
X12258991Y-12076888D01*
X12258991Y-12076888D02*
X12249467Y-12095936D01*
X12249467Y-12095936D02*
X12239943Y-12105460D01*
X12239943Y-12105460D02*
X12220896Y-12114984D01*
X12220896Y-12114984D02*
X12182801Y-12114984D01*
X12182801Y-12114984D02*
X12163753Y-12105460D01*
X12344705Y-12095936D02*
X12354229Y-12105460D01*
X12354229Y-12105460D02*
X12344705Y-12114984D01*
X12344705Y-12114984D02*
X12335182Y-12105460D01*
X12335182Y-12105460D02*
X12344705Y-12095936D01*
X12344705Y-12095936D02*
X12344705Y-12114984D01*
X12344705Y-11991174D02*
X12354229Y-12000698D01*
X12354229Y-12000698D02*
X12344705Y-12010222D01*
X12344705Y-12010222D02*
X12335182Y-12000698D01*
X12335182Y-12000698D02*
X12344705Y-11991174D01*
X12344705Y-11991174D02*
X12344705Y-12010222D01*
D12*
X10682500Y-12428500D02*
X10712500Y-12458500D01*
X10712500Y-12428500D02*
X10682500Y-12458500D01*
D11*
X11011372Y-12334984D02*
X11030420Y-12334984D01*
X11030420Y-12334984D02*
X11049467Y-12344508D01*
X11049467Y-12344508D02*
X11058991Y-12354031D01*
X11058991Y-12354031D02*
X11068515Y-12373079D01*
X11068515Y-12373079D02*
X11078039Y-12411174D01*
X11078039Y-12411174D02*
X11078039Y-12458793D01*
X11078039Y-12458793D02*
X11068515Y-12496888D01*
X11068515Y-12496888D02*
X11058991Y-12515936D01*
X11058991Y-12515936D02*
X11049467Y-12525460D01*
X11049467Y-12525460D02*
X11030420Y-12534984D01*
X11030420Y-12534984D02*
X11011372Y-12534984D01*
X11011372Y-12534984D02*
X10992324Y-12525460D01*
X10992324Y-12525460D02*
X10982801Y-12515936D01*
X10982801Y-12515936D02*
X10973277Y-12496888D01*
X10973277Y-12496888D02*
X10963753Y-12458793D01*
X10963753Y-12458793D02*
X10963753Y-12411174D01*
X10963753Y-12411174D02*
X10973277Y-12373079D01*
X10973277Y-12373079D02*
X10982801Y-12354031D01*
X10982801Y-12354031D02*
X10992324Y-12344508D01*
X10992324Y-12344508D02*
X11011372Y-12334984D01*
X11163753Y-12515936D02*
X11173277Y-12525460D01*
X11173277Y-12525460D02*
X11163753Y-12534984D01*
X11163753Y-12534984D02*
X11154229Y-12525460D01*
X11154229Y-12525460D02*
X11163753Y-12515936D01*
X11163753Y-12515936D02*
X11163753Y-12534984D01*
X11239943Y-12334984D02*
X11363753Y-12334984D01*
X11363753Y-12334984D02*
X11297086Y-12411174D01*
X11297086Y-12411174D02*
X11325658Y-12411174D01*
X11325658Y-12411174D02*
X11344705Y-12420698D01*
X11344705Y-12420698D02*
X11354229Y-12430222D01*
X11354229Y-12430222D02*
X11363753Y-12449269D01*
X11363753Y-12449269D02*
X11363753Y-12496888D01*
X11363753Y-12496888D02*
X11354229Y-12515936D01*
X11354229Y-12515936D02*
X11344705Y-12525460D01*
X11344705Y-12525460D02*
X11325658Y-12534984D01*
X11325658Y-12534984D02*
X11268515Y-12534984D01*
X11268515Y-12534984D02*
X11249467Y-12525460D01*
X11249467Y-12525460D02*
X11239943Y-12515936D01*
X11487562Y-12334984D02*
X11506610Y-12334984D01*
X11506610Y-12334984D02*
X11525658Y-12344508D01*
X11525658Y-12344508D02*
X11535182Y-12354031D01*
X11535182Y-12354031D02*
X11544705Y-12373079D01*
X11544705Y-12373079D02*
X11554229Y-12411174D01*
X11554229Y-12411174D02*
X11554229Y-12458793D01*
X11554229Y-12458793D02*
X11544705Y-12496888D01*
X11544705Y-12496888D02*
X11535182Y-12515936D01*
X11535182Y-12515936D02*
X11525658Y-12525460D01*
X11525658Y-12525460D02*
X11506610Y-12534984D01*
X11506610Y-12534984D02*
X11487562Y-12534984D01*
X11487562Y-12534984D02*
X11468515Y-12525460D01*
X11468515Y-12525460D02*
X11458991Y-12515936D01*
X11458991Y-12515936D02*
X11449467Y-12496888D01*
X11449467Y-12496888D02*
X11439943Y-12458793D01*
X11439943Y-12458793D02*
X11439943Y-12411174D01*
X11439943Y-12411174D02*
X11449467Y-12373079D01*
X11449467Y-12373079D02*
X11458991Y-12354031D01*
X11458991Y-12354031D02*
X11468515Y-12344508D01*
X11468515Y-12344508D02*
X11487562Y-12334984D01*
X11678039Y-12334984D02*
X11697086Y-12334984D01*
X11697086Y-12334984D02*
X11716134Y-12344508D01*
X11716134Y-12344508D02*
X11725658Y-12354031D01*
X11725658Y-12354031D02*
X11735182Y-12373079D01*
X11735182Y-12373079D02*
X11744705Y-12411174D01*
X11744705Y-12411174D02*
X11744705Y-12458793D01*
X11744705Y-12458793D02*
X11735182Y-12496888D01*
X11735182Y-12496888D02*
X11725658Y-12515936D01*
X11725658Y-12515936D02*
X11716134Y-12525460D01*
X11716134Y-12525460D02*
X11697086Y-12534984D01*
X11697086Y-12534984D02*
X11678039Y-12534984D01*
X11678039Y-12534984D02*
X11658991Y-12525460D01*
X11658991Y-12525460D02*
X11649467Y-12515936D01*
X11649467Y-12515936D02*
X11639943Y-12496888D01*
X11639943Y-12496888D02*
X11630420Y-12458793D01*
X11630420Y-12458793D02*
X11630420Y-12411174D01*
X11630420Y-12411174D02*
X11639943Y-12373079D01*
X11639943Y-12373079D02*
X11649467Y-12354031D01*
X11649467Y-12354031D02*
X11658991Y-12344508D01*
X11658991Y-12344508D02*
X11678039Y-12334984D01*
X11830420Y-12534984D02*
X11830420Y-12401650D01*
X11830420Y-12420698D02*
X11839943Y-12411174D01*
X11839943Y-12411174D02*
X11858991Y-12401650D01*
X11858991Y-12401650D02*
X11887563Y-12401650D01*
X11887563Y-12401650D02*
X11906610Y-12411174D01*
X11906610Y-12411174D02*
X11916134Y-12430222D01*
X11916134Y-12430222D02*
X11916134Y-12534984D01*
X11916134Y-12430222D02*
X11925658Y-12411174D01*
X11925658Y-12411174D02*
X11944705Y-12401650D01*
X11944705Y-12401650D02*
X11973277Y-12401650D01*
X11973277Y-12401650D02*
X11992324Y-12411174D01*
X11992324Y-12411174D02*
X12001848Y-12430222D01*
X12001848Y-12430222D02*
X12001848Y-12534984D01*
X12097086Y-12534984D02*
X12097086Y-12401650D01*
X12097086Y-12420698D02*
X12106610Y-12411174D01*
X12106610Y-12411174D02*
X12125658Y-12401650D01*
X12125658Y-12401650D02*
X12154229Y-12401650D01*
X12154229Y-12401650D02*
X12173277Y-12411174D01*
X12173277Y-12411174D02*
X12182801Y-12430222D01*
X12182801Y-12430222D02*
X12182801Y-12534984D01*
X12182801Y-12430222D02*
X12192324Y-12411174D01*
X12192324Y-12411174D02*
X12211372Y-12401650D01*
X12211372Y-12401650D02*
X12239943Y-12401650D01*
X12239943Y-12401650D02*
X12258991Y-12411174D01*
X12258991Y-12411174D02*
X12268515Y-12430222D01*
X12268515Y-12430222D02*
X12268515Y-12534984D01*
X12658991Y-12325460D02*
X12487563Y-12582603D01*
X12916134Y-12334984D02*
X12935182Y-12334984D01*
X12935182Y-12334984D02*
X12954229Y-12344508D01*
X12954229Y-12344508D02*
X12963753Y-12354031D01*
X12963753Y-12354031D02*
X12973277Y-12373079D01*
X12973277Y-12373079D02*
X12982801Y-12411174D01*
X12982801Y-12411174D02*
X12982801Y-12458793D01*
X12982801Y-12458793D02*
X12973277Y-12496888D01*
X12973277Y-12496888D02*
X12963753Y-12515936D01*
X12963753Y-12515936D02*
X12954229Y-12525460D01*
X12954229Y-12525460D02*
X12935182Y-12534984D01*
X12935182Y-12534984D02*
X12916134Y-12534984D01*
X12916134Y-12534984D02*
X12897086Y-12525460D01*
X12897086Y-12525460D02*
X12887563Y-12515936D01*
X12887563Y-12515936D02*
X12878039Y-12496888D01*
X12878039Y-12496888D02*
X12868515Y-12458793D01*
X12868515Y-12458793D02*
X12868515Y-12411174D01*
X12868515Y-12411174D02*
X12878039Y-12373079D01*
X12878039Y-12373079D02*
X12887563Y-12354031D01*
X12887563Y-12354031D02*
X12897086Y-12344508D01*
X12897086Y-12344508D02*
X12916134Y-12334984D01*
X13068515Y-12515936D02*
X13078039Y-12525460D01*
X13078039Y-12525460D02*
X13068515Y-12534984D01*
X13068515Y-12534984D02*
X13058991Y-12525460D01*
X13058991Y-12525460D02*
X13068515Y-12515936D01*
X13068515Y-12515936D02*
X13068515Y-12534984D01*
X13201848Y-12334984D02*
X13220896Y-12334984D01*
X13220896Y-12334984D02*
X13239944Y-12344508D01*
X13239944Y-12344508D02*
X13249467Y-12354031D01*
X13249467Y-12354031D02*
X13258991Y-12373079D01*
X13258991Y-12373079D02*
X13268515Y-12411174D01*
X13268515Y-12411174D02*
X13268515Y-12458793D01*
X13268515Y-12458793D02*
X13258991Y-12496888D01*
X13258991Y-12496888D02*
X13249467Y-12515936D01*
X13249467Y-12515936D02*
X13239944Y-12525460D01*
X13239944Y-12525460D02*
X13220896Y-12534984D01*
X13220896Y-12534984D02*
X13201848Y-12534984D01*
X13201848Y-12534984D02*
X13182801Y-12525460D01*
X13182801Y-12525460D02*
X13173277Y-12515936D01*
X13173277Y-12515936D02*
X13163753Y-12496888D01*
X13163753Y-12496888D02*
X13154229Y-12458793D01*
X13154229Y-12458793D02*
X13154229Y-12411174D01*
X13154229Y-12411174D02*
X13163753Y-12373079D01*
X13163753Y-12373079D02*
X13173277Y-12354031D01*
X13173277Y-12354031D02*
X13182801Y-12344508D01*
X13182801Y-12344508D02*
X13201848Y-12334984D01*
X13458991Y-12534984D02*
X13344706Y-12534984D01*
X13401848Y-12534984D02*
X13401848Y-12334984D01*
X13401848Y-12334984D02*
X13382801Y-12363555D01*
X13382801Y-12363555D02*
X13363753Y-12382603D01*
X13363753Y-12382603D02*
X13344706Y-12392127D01*
X13649467Y-12534984D02*
X13535182Y-12534984D01*
X13592325Y-12534984D02*
X13592325Y-12334984D01*
X13592325Y-12334984D02*
X13573277Y-12363555D01*
X13573277Y-12363555D02*
X13554229Y-12382603D01*
X13554229Y-12382603D02*
X13535182Y-12392127D01*
X13763753Y-12420698D02*
X13744706Y-12411174D01*
X13744706Y-12411174D02*
X13735182Y-12401650D01*
X13735182Y-12401650D02*
X13725658Y-12382603D01*
X13725658Y-12382603D02*
X13725658Y-12373079D01*
X13725658Y-12373079D02*
X13735182Y-12354031D01*
X13735182Y-12354031D02*
X13744706Y-12344508D01*
X13744706Y-12344508D02*
X13763753Y-12334984D01*
X13763753Y-12334984D02*
X13801848Y-12334984D01*
X13801848Y-12334984D02*
X13820896Y-12344508D01*
X13820896Y-12344508D02*
X13830420Y-12354031D01*
X13830420Y-12354031D02*
X13839944Y-12373079D01*
X13839944Y-12373079D02*
X13839944Y-12382603D01*
X13839944Y-12382603D02*
X13830420Y-12401650D01*
X13830420Y-12401650D02*
X13820896Y-12411174D01*
X13820896Y-12411174D02*
X13801848Y-12420698D01*
X13801848Y-12420698D02*
X13763753Y-12420698D01*
X13763753Y-12420698D02*
X13744706Y-12430222D01*
X13744706Y-12430222D02*
X13735182Y-12439746D01*
X13735182Y-12439746D02*
X13725658Y-12458793D01*
X13725658Y-12458793D02*
X13725658Y-12496888D01*
X13725658Y-12496888D02*
X13735182Y-12515936D01*
X13735182Y-12515936D02*
X13744706Y-12525460D01*
X13744706Y-12525460D02*
X13763753Y-12534984D01*
X13763753Y-12534984D02*
X13801848Y-12534984D01*
X13801848Y-12534984D02*
X13820896Y-12525460D01*
X13820896Y-12525460D02*
X13830420Y-12515936D01*
X13830420Y-12515936D02*
X13839944Y-12496888D01*
X13839944Y-12496888D02*
X13839944Y-12458793D01*
X13839944Y-12458793D02*
X13830420Y-12439746D01*
X13830420Y-12439746D02*
X13820896Y-12430222D01*
X13820896Y-12430222D02*
X13801848Y-12420698D01*
X13916134Y-12334984D02*
X13916134Y-12373079D01*
X13992325Y-12334984D02*
X13992325Y-12373079D01*
X14287563Y-12611174D02*
X14278039Y-12601650D01*
X14278039Y-12601650D02*
X14258991Y-12573079D01*
X14258991Y-12573079D02*
X14249468Y-12554031D01*
X14249468Y-12554031D02*
X14239944Y-12525460D01*
X14239944Y-12525460D02*
X14230420Y-12477841D01*
X14230420Y-12477841D02*
X14230420Y-12439746D01*
X14230420Y-12439746D02*
X14239944Y-12392127D01*
X14239944Y-12392127D02*
X14249468Y-12363555D01*
X14249468Y-12363555D02*
X14258991Y-12344508D01*
X14258991Y-12344508D02*
X14278039Y-12315936D01*
X14278039Y-12315936D02*
X14287563Y-12306412D01*
X14344706Y-12334984D02*
X14468515Y-12334984D01*
X14468515Y-12334984D02*
X14401848Y-12411174D01*
X14401848Y-12411174D02*
X14430420Y-12411174D01*
X14430420Y-12411174D02*
X14449468Y-12420698D01*
X14449468Y-12420698D02*
X14458991Y-12430222D01*
X14458991Y-12430222D02*
X14468515Y-12449269D01*
X14468515Y-12449269D02*
X14468515Y-12496888D01*
X14468515Y-12496888D02*
X14458991Y-12515936D01*
X14458991Y-12515936D02*
X14449468Y-12525460D01*
X14449468Y-12525460D02*
X14430420Y-12534984D01*
X14430420Y-12534984D02*
X14373277Y-12534984D01*
X14373277Y-12534984D02*
X14354229Y-12525460D01*
X14354229Y-12525460D02*
X14344706Y-12515936D01*
X14649468Y-12334984D02*
X14554229Y-12334984D01*
X14554229Y-12334984D02*
X14544706Y-12430222D01*
X14544706Y-12430222D02*
X14554229Y-12420698D01*
X14554229Y-12420698D02*
X14573277Y-12411174D01*
X14573277Y-12411174D02*
X14620896Y-12411174D01*
X14620896Y-12411174D02*
X14639944Y-12420698D01*
X14639944Y-12420698D02*
X14649468Y-12430222D01*
X14649468Y-12430222D02*
X14658991Y-12449269D01*
X14658991Y-12449269D02*
X14658991Y-12496888D01*
X14658991Y-12496888D02*
X14649468Y-12515936D01*
X14649468Y-12515936D02*
X14639944Y-12525460D01*
X14639944Y-12525460D02*
X14620896Y-12534984D01*
X14620896Y-12534984D02*
X14573277Y-12534984D01*
X14573277Y-12534984D02*
X14554229Y-12525460D01*
X14554229Y-12525460D02*
X14544706Y-12515936D01*
X14897087Y-12534984D02*
X14897087Y-12334984D01*
X14982801Y-12534984D02*
X14982801Y-12430222D01*
X14982801Y-12430222D02*
X14973277Y-12411174D01*
X14973277Y-12411174D02*
X14954230Y-12401650D01*
X14954230Y-12401650D02*
X14925658Y-12401650D01*
X14925658Y-12401650D02*
X14906610Y-12411174D01*
X14906610Y-12411174D02*
X14897087Y-12420698D01*
X15106610Y-12534984D02*
X15087563Y-12525460D01*
X15087563Y-12525460D02*
X15078039Y-12515936D01*
X15078039Y-12515936D02*
X15068515Y-12496888D01*
X15068515Y-12496888D02*
X15068515Y-12439746D01*
X15068515Y-12439746D02*
X15078039Y-12420698D01*
X15078039Y-12420698D02*
X15087563Y-12411174D01*
X15087563Y-12411174D02*
X15106610Y-12401650D01*
X15106610Y-12401650D02*
X15135182Y-12401650D01*
X15135182Y-12401650D02*
X15154230Y-12411174D01*
X15154230Y-12411174D02*
X15163753Y-12420698D01*
X15163753Y-12420698D02*
X15173277Y-12439746D01*
X15173277Y-12439746D02*
X15173277Y-12496888D01*
X15173277Y-12496888D02*
X15163753Y-12515936D01*
X15163753Y-12515936D02*
X15154230Y-12525460D01*
X15154230Y-12525460D02*
X15135182Y-12534984D01*
X15135182Y-12534984D02*
X15106610Y-12534984D01*
X15287563Y-12534984D02*
X15268515Y-12525460D01*
X15268515Y-12525460D02*
X15258991Y-12506412D01*
X15258991Y-12506412D02*
X15258991Y-12334984D01*
X15439944Y-12525460D02*
X15420896Y-12534984D01*
X15420896Y-12534984D02*
X15382801Y-12534984D01*
X15382801Y-12534984D02*
X15363753Y-12525460D01*
X15363753Y-12525460D02*
X15354230Y-12506412D01*
X15354230Y-12506412D02*
X15354230Y-12430222D01*
X15354230Y-12430222D02*
X15363753Y-12411174D01*
X15363753Y-12411174D02*
X15382801Y-12401650D01*
X15382801Y-12401650D02*
X15420896Y-12401650D01*
X15420896Y-12401650D02*
X15439944Y-12411174D01*
X15439944Y-12411174D02*
X15449468Y-12430222D01*
X15449468Y-12430222D02*
X15449468Y-12449269D01*
X15449468Y-12449269D02*
X15354230Y-12468317D01*
X15525658Y-12525460D02*
X15544706Y-12534984D01*
X15544706Y-12534984D02*
X15582801Y-12534984D01*
X15582801Y-12534984D02*
X15601849Y-12525460D01*
X15601849Y-12525460D02*
X15611372Y-12506412D01*
X15611372Y-12506412D02*
X15611372Y-12496888D01*
X15611372Y-12496888D02*
X15601849Y-12477841D01*
X15601849Y-12477841D02*
X15582801Y-12468317D01*
X15582801Y-12468317D02*
X15554230Y-12468317D01*
X15554230Y-12468317D02*
X15535182Y-12458793D01*
X15535182Y-12458793D02*
X15525658Y-12439746D01*
X15525658Y-12439746D02*
X15525658Y-12430222D01*
X15525658Y-12430222D02*
X15535182Y-12411174D01*
X15535182Y-12411174D02*
X15554230Y-12401650D01*
X15554230Y-12401650D02*
X15582801Y-12401650D01*
X15582801Y-12401650D02*
X15601849Y-12411174D01*
X15678039Y-12611174D02*
X15687563Y-12601650D01*
X15687563Y-12601650D02*
X15706611Y-12573079D01*
X15706611Y-12573079D02*
X15716134Y-12554031D01*
X15716134Y-12554031D02*
X15725658Y-12525460D01*
X15725658Y-12525460D02*
X15735182Y-12477841D01*
X15735182Y-12477841D02*
X15735182Y-12439746D01*
X15735182Y-12439746D02*
X15725658Y-12392127D01*
X15725658Y-12392127D02*
X15716134Y-12363555D01*
X15716134Y-12363555D02*
X15706611Y-12344508D01*
X15706611Y-12344508D02*
X15687563Y-12315936D01*
X15687563Y-12315936D02*
X15678039Y-12306412D01*
D13*
X10712500Y-12707500D02*
G75*
G02*
X10608500Y-12707500I-52000J0D01*
G01*
X10608500Y-12707500D02*
G75*
G02*
X10712500Y-12707500I52000J0D01*
G01*
D11*
X11078039Y-12798984D02*
X10963753Y-12798984D01*
X11020896Y-12798984D02*
X11020896Y-12598984D01*
X11020896Y-12598984D02*
X11001848Y-12627555D01*
X11001848Y-12627555D02*
X10982801Y-12646603D01*
X10982801Y-12646603D02*
X10963753Y-12656127D01*
X11163753Y-12779936D02*
X11173277Y-12789460D01*
X11173277Y-12789460D02*
X11163753Y-12798984D01*
X11163753Y-12798984D02*
X11154229Y-12789460D01*
X11154229Y-12789460D02*
X11163753Y-12779936D01*
X11163753Y-12779936D02*
X11163753Y-12798984D01*
X11297086Y-12598984D02*
X11316134Y-12598984D01*
X11316134Y-12598984D02*
X11335182Y-12608508D01*
X11335182Y-12608508D02*
X11344705Y-12618031D01*
X11344705Y-12618031D02*
X11354229Y-12637079D01*
X11354229Y-12637079D02*
X11363753Y-12675174D01*
X11363753Y-12675174D02*
X11363753Y-12722793D01*
X11363753Y-12722793D02*
X11354229Y-12760888D01*
X11354229Y-12760888D02*
X11344705Y-12779936D01*
X11344705Y-12779936D02*
X11335182Y-12789460D01*
X11335182Y-12789460D02*
X11316134Y-12798984D01*
X11316134Y-12798984D02*
X11297086Y-12798984D01*
X11297086Y-12798984D02*
X11278039Y-12789460D01*
X11278039Y-12789460D02*
X11268515Y-12779936D01*
X11268515Y-12779936D02*
X11258991Y-12760888D01*
X11258991Y-12760888D02*
X11249467Y-12722793D01*
X11249467Y-12722793D02*
X11249467Y-12675174D01*
X11249467Y-12675174D02*
X11258991Y-12637079D01*
X11258991Y-12637079D02*
X11268515Y-12618031D01*
X11268515Y-12618031D02*
X11278039Y-12608508D01*
X11278039Y-12608508D02*
X11297086Y-12598984D01*
X11535182Y-12665650D02*
X11535182Y-12798984D01*
X11487562Y-12589460D02*
X11439943Y-12732317D01*
X11439943Y-12732317D02*
X11563753Y-12732317D01*
X11678039Y-12598984D02*
X11697086Y-12598984D01*
X11697086Y-12598984D02*
X11716134Y-12608508D01*
X11716134Y-12608508D02*
X11725658Y-12618031D01*
X11725658Y-12618031D02*
X11735182Y-12637079D01*
X11735182Y-12637079D02*
X11744705Y-12675174D01*
X11744705Y-12675174D02*
X11744705Y-12722793D01*
X11744705Y-12722793D02*
X11735182Y-12760888D01*
X11735182Y-12760888D02*
X11725658Y-12779936D01*
X11725658Y-12779936D02*
X11716134Y-12789460D01*
X11716134Y-12789460D02*
X11697086Y-12798984D01*
X11697086Y-12798984D02*
X11678039Y-12798984D01*
X11678039Y-12798984D02*
X11658991Y-12789460D01*
X11658991Y-12789460D02*
X11649467Y-12779936D01*
X11649467Y-12779936D02*
X11639943Y-12760888D01*
X11639943Y-12760888D02*
X11630420Y-12722793D01*
X11630420Y-12722793D02*
X11630420Y-12675174D01*
X11630420Y-12675174D02*
X11639943Y-12637079D01*
X11639943Y-12637079D02*
X11649467Y-12618031D01*
X11649467Y-12618031D02*
X11658991Y-12608508D01*
X11658991Y-12608508D02*
X11678039Y-12598984D01*
X11830420Y-12798984D02*
X11830420Y-12665650D01*
X11830420Y-12684698D02*
X11839943Y-12675174D01*
X11839943Y-12675174D02*
X11858991Y-12665650D01*
X11858991Y-12665650D02*
X11887563Y-12665650D01*
X11887563Y-12665650D02*
X11906610Y-12675174D01*
X11906610Y-12675174D02*
X11916134Y-12694222D01*
X11916134Y-12694222D02*
X11916134Y-12798984D01*
X11916134Y-12694222D02*
X11925658Y-12675174D01*
X11925658Y-12675174D02*
X11944705Y-12665650D01*
X11944705Y-12665650D02*
X11973277Y-12665650D01*
X11973277Y-12665650D02*
X11992324Y-12675174D01*
X11992324Y-12675174D02*
X12001848Y-12694222D01*
X12001848Y-12694222D02*
X12001848Y-12798984D01*
X12097086Y-12798984D02*
X12097086Y-12665650D01*
X12097086Y-12684698D02*
X12106610Y-12675174D01*
X12106610Y-12675174D02*
X12125658Y-12665650D01*
X12125658Y-12665650D02*
X12154229Y-12665650D01*
X12154229Y-12665650D02*
X12173277Y-12675174D01*
X12173277Y-12675174D02*
X12182801Y-12694222D01*
X12182801Y-12694222D02*
X12182801Y-12798984D01*
X12182801Y-12694222D02*
X12192324Y-12675174D01*
X12192324Y-12675174D02*
X12211372Y-12665650D01*
X12211372Y-12665650D02*
X12239943Y-12665650D01*
X12239943Y-12665650D02*
X12258991Y-12675174D01*
X12258991Y-12675174D02*
X12268515Y-12694222D01*
X12268515Y-12694222D02*
X12268515Y-12798984D01*
X12658991Y-12589460D02*
X12487563Y-12846603D01*
X12916134Y-12598984D02*
X12935182Y-12598984D01*
X12935182Y-12598984D02*
X12954229Y-12608508D01*
X12954229Y-12608508D02*
X12963753Y-12618031D01*
X12963753Y-12618031D02*
X12973277Y-12637079D01*
X12973277Y-12637079D02*
X12982801Y-12675174D01*
X12982801Y-12675174D02*
X12982801Y-12722793D01*
X12982801Y-12722793D02*
X12973277Y-12760888D01*
X12973277Y-12760888D02*
X12963753Y-12779936D01*
X12963753Y-12779936D02*
X12954229Y-12789460D01*
X12954229Y-12789460D02*
X12935182Y-12798984D01*
X12935182Y-12798984D02*
X12916134Y-12798984D01*
X12916134Y-12798984D02*
X12897086Y-12789460D01*
X12897086Y-12789460D02*
X12887563Y-12779936D01*
X12887563Y-12779936D02*
X12878039Y-12760888D01*
X12878039Y-12760888D02*
X12868515Y-12722793D01*
X12868515Y-12722793D02*
X12868515Y-12675174D01*
X12868515Y-12675174D02*
X12878039Y-12637079D01*
X12878039Y-12637079D02*
X12887563Y-12618031D01*
X12887563Y-12618031D02*
X12897086Y-12608508D01*
X12897086Y-12608508D02*
X12916134Y-12598984D01*
X13068515Y-12779936D02*
X13078039Y-12789460D01*
X13078039Y-12789460D02*
X13068515Y-12798984D01*
X13068515Y-12798984D02*
X13058991Y-12789460D01*
X13058991Y-12789460D02*
X13068515Y-12779936D01*
X13068515Y-12779936D02*
X13068515Y-12798984D01*
X13201848Y-12598984D02*
X13220896Y-12598984D01*
X13220896Y-12598984D02*
X13239944Y-12608508D01*
X13239944Y-12608508D02*
X13249467Y-12618031D01*
X13249467Y-12618031D02*
X13258991Y-12637079D01*
X13258991Y-12637079D02*
X13268515Y-12675174D01*
X13268515Y-12675174D02*
X13268515Y-12722793D01*
X13268515Y-12722793D02*
X13258991Y-12760888D01*
X13258991Y-12760888D02*
X13249467Y-12779936D01*
X13249467Y-12779936D02*
X13239944Y-12789460D01*
X13239944Y-12789460D02*
X13220896Y-12798984D01*
X13220896Y-12798984D02*
X13201848Y-12798984D01*
X13201848Y-12798984D02*
X13182801Y-12789460D01*
X13182801Y-12789460D02*
X13173277Y-12779936D01*
X13173277Y-12779936D02*
X13163753Y-12760888D01*
X13163753Y-12760888D02*
X13154229Y-12722793D01*
X13154229Y-12722793D02*
X13154229Y-12675174D01*
X13154229Y-12675174D02*
X13163753Y-12637079D01*
X13163753Y-12637079D02*
X13173277Y-12618031D01*
X13173277Y-12618031D02*
X13182801Y-12608508D01*
X13182801Y-12608508D02*
X13201848Y-12598984D01*
X13439944Y-12665650D02*
X13439944Y-12798984D01*
X13392325Y-12589460D02*
X13344706Y-12732317D01*
X13344706Y-12732317D02*
X13468515Y-12732317D01*
X13582801Y-12598984D02*
X13601848Y-12598984D01*
X13601848Y-12598984D02*
X13620896Y-12608508D01*
X13620896Y-12608508D02*
X13630420Y-12618031D01*
X13630420Y-12618031D02*
X13639944Y-12637079D01*
X13639944Y-12637079D02*
X13649467Y-12675174D01*
X13649467Y-12675174D02*
X13649467Y-12722793D01*
X13649467Y-12722793D02*
X13639944Y-12760888D01*
X13639944Y-12760888D02*
X13630420Y-12779936D01*
X13630420Y-12779936D02*
X13620896Y-12789460D01*
X13620896Y-12789460D02*
X13601848Y-12798984D01*
X13601848Y-12798984D02*
X13582801Y-12798984D01*
X13582801Y-12798984D02*
X13563753Y-12789460D01*
X13563753Y-12789460D02*
X13554229Y-12779936D01*
X13554229Y-12779936D02*
X13544706Y-12760888D01*
X13544706Y-12760888D02*
X13535182Y-12722793D01*
X13535182Y-12722793D02*
X13535182Y-12675174D01*
X13535182Y-12675174D02*
X13544706Y-12637079D01*
X13544706Y-12637079D02*
X13554229Y-12618031D01*
X13554229Y-12618031D02*
X13563753Y-12608508D01*
X13563753Y-12608508D02*
X13582801Y-12598984D01*
X13744706Y-12798984D02*
X13782801Y-12798984D01*
X13782801Y-12798984D02*
X13801848Y-12789460D01*
X13801848Y-12789460D02*
X13811372Y-12779936D01*
X13811372Y-12779936D02*
X13830420Y-12751365D01*
X13830420Y-12751365D02*
X13839944Y-12713269D01*
X13839944Y-12713269D02*
X13839944Y-12637079D01*
X13839944Y-12637079D02*
X13830420Y-12618031D01*
X13830420Y-12618031D02*
X13820896Y-12608508D01*
X13820896Y-12608508D02*
X13801848Y-12598984D01*
X13801848Y-12598984D02*
X13763753Y-12598984D01*
X13763753Y-12598984D02*
X13744706Y-12608508D01*
X13744706Y-12608508D02*
X13735182Y-12618031D01*
X13735182Y-12618031D02*
X13725658Y-12637079D01*
X13725658Y-12637079D02*
X13725658Y-12684698D01*
X13725658Y-12684698D02*
X13735182Y-12703746D01*
X13735182Y-12703746D02*
X13744706Y-12713269D01*
X13744706Y-12713269D02*
X13763753Y-12722793D01*
X13763753Y-12722793D02*
X13801848Y-12722793D01*
X13801848Y-12722793D02*
X13820896Y-12713269D01*
X13820896Y-12713269D02*
X13830420Y-12703746D01*
X13830420Y-12703746D02*
X13839944Y-12684698D01*
X13916134Y-12598984D02*
X13916134Y-12637079D01*
X13992325Y-12598984D02*
X13992325Y-12637079D01*
X14287563Y-12875174D02*
X14278039Y-12865650D01*
X14278039Y-12865650D02*
X14258991Y-12837079D01*
X14258991Y-12837079D02*
X14249468Y-12818031D01*
X14249468Y-12818031D02*
X14239944Y-12789460D01*
X14239944Y-12789460D02*
X14230420Y-12741841D01*
X14230420Y-12741841D02*
X14230420Y-12703746D01*
X14230420Y-12703746D02*
X14239944Y-12656127D01*
X14239944Y-12656127D02*
X14249468Y-12627555D01*
X14249468Y-12627555D02*
X14258991Y-12608508D01*
X14258991Y-12608508D02*
X14278039Y-12579936D01*
X14278039Y-12579936D02*
X14287563Y-12570412D01*
X14344706Y-12598984D02*
X14468515Y-12598984D01*
X14468515Y-12598984D02*
X14401848Y-12675174D01*
X14401848Y-12675174D02*
X14430420Y-12675174D01*
X14430420Y-12675174D02*
X14449468Y-12684698D01*
X14449468Y-12684698D02*
X14458991Y-12694222D01*
X14458991Y-12694222D02*
X14468515Y-12713269D01*
X14468515Y-12713269D02*
X14468515Y-12760888D01*
X14468515Y-12760888D02*
X14458991Y-12779936D01*
X14458991Y-12779936D02*
X14449468Y-12789460D01*
X14449468Y-12789460D02*
X14430420Y-12798984D01*
X14430420Y-12798984D02*
X14373277Y-12798984D01*
X14373277Y-12798984D02*
X14354229Y-12789460D01*
X14354229Y-12789460D02*
X14344706Y-12779936D01*
X14592325Y-12598984D02*
X14611372Y-12598984D01*
X14611372Y-12598984D02*
X14630420Y-12608508D01*
X14630420Y-12608508D02*
X14639944Y-12618031D01*
X14639944Y-12618031D02*
X14649468Y-12637079D01*
X14649468Y-12637079D02*
X14658991Y-12675174D01*
X14658991Y-12675174D02*
X14658991Y-12722793D01*
X14658991Y-12722793D02*
X14649468Y-12760888D01*
X14649468Y-12760888D02*
X14639944Y-12779936D01*
X14639944Y-12779936D02*
X14630420Y-12789460D01*
X14630420Y-12789460D02*
X14611372Y-12798984D01*
X14611372Y-12798984D02*
X14592325Y-12798984D01*
X14592325Y-12798984D02*
X14573277Y-12789460D01*
X14573277Y-12789460D02*
X14563753Y-12779936D01*
X14563753Y-12779936D02*
X14554229Y-12760888D01*
X14554229Y-12760888D02*
X14544706Y-12722793D01*
X14544706Y-12722793D02*
X14544706Y-12675174D01*
X14544706Y-12675174D02*
X14554229Y-12637079D01*
X14554229Y-12637079D02*
X14563753Y-12618031D01*
X14563753Y-12618031D02*
X14573277Y-12608508D01*
X14573277Y-12608508D02*
X14592325Y-12598984D01*
X14897087Y-12798984D02*
X14897087Y-12598984D01*
X14982801Y-12798984D02*
X14982801Y-12694222D01*
X14982801Y-12694222D02*
X14973277Y-12675174D01*
X14973277Y-12675174D02*
X14954230Y-12665650D01*
X14954230Y-12665650D02*
X14925658Y-12665650D01*
X14925658Y-12665650D02*
X14906610Y-12675174D01*
X14906610Y-12675174D02*
X14897087Y-12684698D01*
X15106610Y-12798984D02*
X15087563Y-12789460D01*
X15087563Y-12789460D02*
X15078039Y-12779936D01*
X15078039Y-12779936D02*
X15068515Y-12760888D01*
X15068515Y-12760888D02*
X15068515Y-12703746D01*
X15068515Y-12703746D02*
X15078039Y-12684698D01*
X15078039Y-12684698D02*
X15087563Y-12675174D01*
X15087563Y-12675174D02*
X15106610Y-12665650D01*
X15106610Y-12665650D02*
X15135182Y-12665650D01*
X15135182Y-12665650D02*
X15154230Y-12675174D01*
X15154230Y-12675174D02*
X15163753Y-12684698D01*
X15163753Y-12684698D02*
X15173277Y-12703746D01*
X15173277Y-12703746D02*
X15173277Y-12760888D01*
X15173277Y-12760888D02*
X15163753Y-12779936D01*
X15163753Y-12779936D02*
X15154230Y-12789460D01*
X15154230Y-12789460D02*
X15135182Y-12798984D01*
X15135182Y-12798984D02*
X15106610Y-12798984D01*
X15287563Y-12798984D02*
X15268515Y-12789460D01*
X15268515Y-12789460D02*
X15258991Y-12770412D01*
X15258991Y-12770412D02*
X15258991Y-12598984D01*
X15439944Y-12789460D02*
X15420896Y-12798984D01*
X15420896Y-12798984D02*
X15382801Y-12798984D01*
X15382801Y-12798984D02*
X15363753Y-12789460D01*
X15363753Y-12789460D02*
X15354230Y-12770412D01*
X15354230Y-12770412D02*
X15354230Y-12694222D01*
X15354230Y-12694222D02*
X15363753Y-12675174D01*
X15363753Y-12675174D02*
X15382801Y-12665650D01*
X15382801Y-12665650D02*
X15420896Y-12665650D01*
X15420896Y-12665650D02*
X15439944Y-12675174D01*
X15439944Y-12675174D02*
X15449468Y-12694222D01*
X15449468Y-12694222D02*
X15449468Y-12713269D01*
X15449468Y-12713269D02*
X15354230Y-12732317D01*
X15525658Y-12789460D02*
X15544706Y-12798984D01*
X15544706Y-12798984D02*
X15582801Y-12798984D01*
X15582801Y-12798984D02*
X15601849Y-12789460D01*
X15601849Y-12789460D02*
X15611372Y-12770412D01*
X15611372Y-12770412D02*
X15611372Y-12760888D01*
X15611372Y-12760888D02*
X15601849Y-12741841D01*
X15601849Y-12741841D02*
X15582801Y-12732317D01*
X15582801Y-12732317D02*
X15554230Y-12732317D01*
X15554230Y-12732317D02*
X15535182Y-12722793D01*
X15535182Y-12722793D02*
X15525658Y-12703746D01*
X15525658Y-12703746D02*
X15525658Y-12694222D01*
X15525658Y-12694222D02*
X15535182Y-12675174D01*
X15535182Y-12675174D02*
X15554230Y-12665650D01*
X15554230Y-12665650D02*
X15582801Y-12665650D01*
X15582801Y-12665650D02*
X15601849Y-12675174D01*
X15678039Y-12875174D02*
X15687563Y-12865650D01*
X15687563Y-12865650D02*
X15706611Y-12837079D01*
X15706611Y-12837079D02*
X15716134Y-12818031D01*
X15716134Y-12818031D02*
X15725658Y-12789460D01*
X15725658Y-12789460D02*
X15735182Y-12741841D01*
X15735182Y-12741841D02*
X15735182Y-12703746D01*
X15735182Y-12703746D02*
X15725658Y-12656127D01*
X15725658Y-12656127D02*
X15716134Y-12627555D01*
X15716134Y-12627555D02*
X15706611Y-12608508D01*
X15706611Y-12608508D02*
X15687563Y-12579936D01*
X15687563Y-12579936D02*
X15678039Y-12570412D01*
D14*
X10652810Y-12911810D02*
X10652810Y-13031190D01*
X10593120Y-12971500D02*
X10712500Y-12971500D01*
D11*
X11078039Y-13062984D02*
X10963753Y-13062984D01*
X11020896Y-13062984D02*
X11020896Y-12862984D01*
X11020896Y-12862984D02*
X11001848Y-12891555D01*
X11001848Y-12891555D02*
X10982801Y-12910603D01*
X10982801Y-12910603D02*
X10963753Y-12920127D01*
X11163753Y-13043936D02*
X11173277Y-13053460D01*
X11173277Y-13053460D02*
X11163753Y-13062984D01*
X11163753Y-13062984D02*
X11154229Y-13053460D01*
X11154229Y-13053460D02*
X11163753Y-13043936D01*
X11163753Y-13043936D02*
X11163753Y-13062984D01*
X11363753Y-13062984D02*
X11249467Y-13062984D01*
X11306610Y-13062984D02*
X11306610Y-12862984D01*
X11306610Y-12862984D02*
X11287562Y-12891555D01*
X11287562Y-12891555D02*
X11268515Y-12910603D01*
X11268515Y-12910603D02*
X11249467Y-12920127D01*
X11458991Y-13062984D02*
X11497086Y-13062984D01*
X11497086Y-13062984D02*
X11516134Y-13053460D01*
X11516134Y-13053460D02*
X11525658Y-13043936D01*
X11525658Y-13043936D02*
X11544705Y-13015365D01*
X11544705Y-13015365D02*
X11554229Y-12977269D01*
X11554229Y-12977269D02*
X11554229Y-12901079D01*
X11554229Y-12901079D02*
X11544705Y-12882031D01*
X11544705Y-12882031D02*
X11535182Y-12872508D01*
X11535182Y-12872508D02*
X11516134Y-12862984D01*
X11516134Y-12862984D02*
X11478039Y-12862984D01*
X11478039Y-12862984D02*
X11458991Y-12872508D01*
X11458991Y-12872508D02*
X11449467Y-12882031D01*
X11449467Y-12882031D02*
X11439943Y-12901079D01*
X11439943Y-12901079D02*
X11439943Y-12948698D01*
X11439943Y-12948698D02*
X11449467Y-12967746D01*
X11449467Y-12967746D02*
X11458991Y-12977269D01*
X11458991Y-12977269D02*
X11478039Y-12986793D01*
X11478039Y-12986793D02*
X11516134Y-12986793D01*
X11516134Y-12986793D02*
X11535182Y-12977269D01*
X11535182Y-12977269D02*
X11544705Y-12967746D01*
X11544705Y-12967746D02*
X11554229Y-12948698D01*
X11725658Y-12929650D02*
X11725658Y-13062984D01*
X11678039Y-12853460D02*
X11630420Y-12996317D01*
X11630420Y-12996317D02*
X11754229Y-12996317D01*
X11830420Y-13062984D02*
X11830420Y-12929650D01*
X11830420Y-12948698D02*
X11839943Y-12939174D01*
X11839943Y-12939174D02*
X11858991Y-12929650D01*
X11858991Y-12929650D02*
X11887563Y-12929650D01*
X11887563Y-12929650D02*
X11906610Y-12939174D01*
X11906610Y-12939174D02*
X11916134Y-12958222D01*
X11916134Y-12958222D02*
X11916134Y-13062984D01*
X11916134Y-12958222D02*
X11925658Y-12939174D01*
X11925658Y-12939174D02*
X11944705Y-12929650D01*
X11944705Y-12929650D02*
X11973277Y-12929650D01*
X11973277Y-12929650D02*
X11992324Y-12939174D01*
X11992324Y-12939174D02*
X12001848Y-12958222D01*
X12001848Y-12958222D02*
X12001848Y-13062984D01*
X12097086Y-13062984D02*
X12097086Y-12929650D01*
X12097086Y-12948698D02*
X12106610Y-12939174D01*
X12106610Y-12939174D02*
X12125658Y-12929650D01*
X12125658Y-12929650D02*
X12154229Y-12929650D01*
X12154229Y-12929650D02*
X12173277Y-12939174D01*
X12173277Y-12939174D02*
X12182801Y-12958222D01*
X12182801Y-12958222D02*
X12182801Y-13062984D01*
X12182801Y-12958222D02*
X12192324Y-12939174D01*
X12192324Y-12939174D02*
X12211372Y-12929650D01*
X12211372Y-12929650D02*
X12239943Y-12929650D01*
X12239943Y-12929650D02*
X12258991Y-12939174D01*
X12258991Y-12939174D02*
X12268515Y-12958222D01*
X12268515Y-12958222D02*
X12268515Y-13062984D01*
X12658991Y-12853460D02*
X12487563Y-13110603D01*
X12916134Y-12862984D02*
X12935182Y-12862984D01*
X12935182Y-12862984D02*
X12954229Y-12872508D01*
X12954229Y-12872508D02*
X12963753Y-12882031D01*
X12963753Y-12882031D02*
X12973277Y-12901079D01*
X12973277Y-12901079D02*
X12982801Y-12939174D01*
X12982801Y-12939174D02*
X12982801Y-12986793D01*
X12982801Y-12986793D02*
X12973277Y-13024888D01*
X12973277Y-13024888D02*
X12963753Y-13043936D01*
X12963753Y-13043936D02*
X12954229Y-13053460D01*
X12954229Y-13053460D02*
X12935182Y-13062984D01*
X12935182Y-13062984D02*
X12916134Y-13062984D01*
X12916134Y-13062984D02*
X12897086Y-13053460D01*
X12897086Y-13053460D02*
X12887563Y-13043936D01*
X12887563Y-13043936D02*
X12878039Y-13024888D01*
X12878039Y-13024888D02*
X12868515Y-12986793D01*
X12868515Y-12986793D02*
X12868515Y-12939174D01*
X12868515Y-12939174D02*
X12878039Y-12901079D01*
X12878039Y-12901079D02*
X12887563Y-12882031D01*
X12887563Y-12882031D02*
X12897086Y-12872508D01*
X12897086Y-12872508D02*
X12916134Y-12862984D01*
X13068515Y-13043936D02*
X13078039Y-13053460D01*
X13078039Y-13053460D02*
X13068515Y-13062984D01*
X13068515Y-13062984D02*
X13058991Y-13053460D01*
X13058991Y-13053460D02*
X13068515Y-13043936D01*
X13068515Y-13043936D02*
X13068515Y-13062984D01*
X13201848Y-12862984D02*
X13220896Y-12862984D01*
X13220896Y-12862984D02*
X13239944Y-12872508D01*
X13239944Y-12872508D02*
X13249467Y-12882031D01*
X13249467Y-12882031D02*
X13258991Y-12901079D01*
X13258991Y-12901079D02*
X13268515Y-12939174D01*
X13268515Y-12939174D02*
X13268515Y-12986793D01*
X13268515Y-12986793D02*
X13258991Y-13024888D01*
X13258991Y-13024888D02*
X13249467Y-13043936D01*
X13249467Y-13043936D02*
X13239944Y-13053460D01*
X13239944Y-13053460D02*
X13220896Y-13062984D01*
X13220896Y-13062984D02*
X13201848Y-13062984D01*
X13201848Y-13062984D02*
X13182801Y-13053460D01*
X13182801Y-13053460D02*
X13173277Y-13043936D01*
X13173277Y-13043936D02*
X13163753Y-13024888D01*
X13163753Y-13024888D02*
X13154229Y-12986793D01*
X13154229Y-12986793D02*
X13154229Y-12939174D01*
X13154229Y-12939174D02*
X13163753Y-12901079D01*
X13163753Y-12901079D02*
X13173277Y-12882031D01*
X13173277Y-12882031D02*
X13182801Y-12872508D01*
X13182801Y-12872508D02*
X13201848Y-12862984D01*
X13439944Y-12929650D02*
X13439944Y-13062984D01*
X13392325Y-12853460D02*
X13344706Y-12996317D01*
X13344706Y-12996317D02*
X13468515Y-12996317D01*
X13525658Y-12862984D02*
X13658991Y-12862984D01*
X13658991Y-12862984D02*
X13573277Y-13062984D01*
X13773277Y-12862984D02*
X13792325Y-12862984D01*
X13792325Y-12862984D02*
X13811372Y-12872508D01*
X13811372Y-12872508D02*
X13820896Y-12882031D01*
X13820896Y-12882031D02*
X13830420Y-12901079D01*
X13830420Y-12901079D02*
X13839944Y-12939174D01*
X13839944Y-12939174D02*
X13839944Y-12986793D01*
X13839944Y-12986793D02*
X13830420Y-13024888D01*
X13830420Y-13024888D02*
X13820896Y-13043936D01*
X13820896Y-13043936D02*
X13811372Y-13053460D01*
X13811372Y-13053460D02*
X13792325Y-13062984D01*
X13792325Y-13062984D02*
X13773277Y-13062984D01*
X13773277Y-13062984D02*
X13754229Y-13053460D01*
X13754229Y-13053460D02*
X13744706Y-13043936D01*
X13744706Y-13043936D02*
X13735182Y-13024888D01*
X13735182Y-13024888D02*
X13725658Y-12986793D01*
X13725658Y-12986793D02*
X13725658Y-12939174D01*
X13725658Y-12939174D02*
X13735182Y-12901079D01*
X13735182Y-12901079D02*
X13744706Y-12882031D01*
X13744706Y-12882031D02*
X13754229Y-12872508D01*
X13754229Y-12872508D02*
X13773277Y-12862984D01*
X13916134Y-12862984D02*
X13916134Y-12901079D01*
X13992325Y-12862984D02*
X13992325Y-12901079D01*
X14287563Y-13139174D02*
X14278039Y-13129650D01*
X14278039Y-13129650D02*
X14258991Y-13101079D01*
X14258991Y-13101079D02*
X14249468Y-13082031D01*
X14249468Y-13082031D02*
X14239944Y-13053460D01*
X14239944Y-13053460D02*
X14230420Y-13005841D01*
X14230420Y-13005841D02*
X14230420Y-12967746D01*
X14230420Y-12967746D02*
X14239944Y-12920127D01*
X14239944Y-12920127D02*
X14249468Y-12891555D01*
X14249468Y-12891555D02*
X14258991Y-12872508D01*
X14258991Y-12872508D02*
X14278039Y-12843936D01*
X14278039Y-12843936D02*
X14287563Y-12834412D01*
X14354229Y-12882031D02*
X14363753Y-12872508D01*
X14363753Y-12872508D02*
X14382801Y-12862984D01*
X14382801Y-12862984D02*
X14430420Y-12862984D01*
X14430420Y-12862984D02*
X14449468Y-12872508D01*
X14449468Y-12872508D02*
X14458991Y-12882031D01*
X14458991Y-12882031D02*
X14468515Y-12901079D01*
X14468515Y-12901079D02*
X14468515Y-12920127D01*
X14468515Y-12920127D02*
X14458991Y-12948698D01*
X14458991Y-12948698D02*
X14344706Y-13062984D01*
X14344706Y-13062984D02*
X14468515Y-13062984D01*
X14639944Y-12929650D02*
X14639944Y-13062984D01*
X14592325Y-12853460D02*
X14544706Y-12996317D01*
X14544706Y-12996317D02*
X14668515Y-12996317D01*
X14897087Y-13062984D02*
X14897087Y-12862984D01*
X14982801Y-13062984D02*
X14982801Y-12958222D01*
X14982801Y-12958222D02*
X14973277Y-12939174D01*
X14973277Y-12939174D02*
X14954230Y-12929650D01*
X14954230Y-12929650D02*
X14925658Y-12929650D01*
X14925658Y-12929650D02*
X14906610Y-12939174D01*
X14906610Y-12939174D02*
X14897087Y-12948698D01*
X15106610Y-13062984D02*
X15087563Y-13053460D01*
X15087563Y-13053460D02*
X15078039Y-13043936D01*
X15078039Y-13043936D02*
X15068515Y-13024888D01*
X15068515Y-13024888D02*
X15068515Y-12967746D01*
X15068515Y-12967746D02*
X15078039Y-12948698D01*
X15078039Y-12948698D02*
X15087563Y-12939174D01*
X15087563Y-12939174D02*
X15106610Y-12929650D01*
X15106610Y-12929650D02*
X15135182Y-12929650D01*
X15135182Y-12929650D02*
X15154230Y-12939174D01*
X15154230Y-12939174D02*
X15163753Y-12948698D01*
X15163753Y-12948698D02*
X15173277Y-12967746D01*
X15173277Y-12967746D02*
X15173277Y-13024888D01*
X15173277Y-13024888D02*
X15163753Y-13043936D01*
X15163753Y-13043936D02*
X15154230Y-13053460D01*
X15154230Y-13053460D02*
X15135182Y-13062984D01*
X15135182Y-13062984D02*
X15106610Y-13062984D01*
X15287563Y-13062984D02*
X15268515Y-13053460D01*
X15268515Y-13053460D02*
X15258991Y-13034412D01*
X15258991Y-13034412D02*
X15258991Y-12862984D01*
X15439944Y-13053460D02*
X15420896Y-13062984D01*
X15420896Y-13062984D02*
X15382801Y-13062984D01*
X15382801Y-13062984D02*
X15363753Y-13053460D01*
X15363753Y-13053460D02*
X15354230Y-13034412D01*
X15354230Y-13034412D02*
X15354230Y-12958222D01*
X15354230Y-12958222D02*
X15363753Y-12939174D01*
X15363753Y-12939174D02*
X15382801Y-12929650D01*
X15382801Y-12929650D02*
X15420896Y-12929650D01*
X15420896Y-12929650D02*
X15439944Y-12939174D01*
X15439944Y-12939174D02*
X15449468Y-12958222D01*
X15449468Y-12958222D02*
X15449468Y-12977269D01*
X15449468Y-12977269D02*
X15354230Y-12996317D01*
X15525658Y-13053460D02*
X15544706Y-13062984D01*
X15544706Y-13062984D02*
X15582801Y-13062984D01*
X15582801Y-13062984D02*
X15601849Y-13053460D01*
X15601849Y-13053460D02*
X15611372Y-13034412D01*
X15611372Y-13034412D02*
X15611372Y-13024888D01*
X15611372Y-13024888D02*
X15601849Y-13005841D01*
X15601849Y-13005841D02*
X15582801Y-12996317D01*
X15582801Y-12996317D02*
X15554230Y-12996317D01*
X15554230Y-12996317D02*
X15535182Y-12986793D01*
X15535182Y-12986793D02*
X15525658Y-12967746D01*
X15525658Y-12967746D02*
X15525658Y-12958222D01*
X15525658Y-12958222D02*
X15535182Y-12939174D01*
X15535182Y-12939174D02*
X15554230Y-12929650D01*
X15554230Y-12929650D02*
X15582801Y-12929650D01*
X15582801Y-12929650D02*
X15601849Y-12939174D01*
X15678039Y-13139174D02*
X15687563Y-13129650D01*
X15687563Y-13129650D02*
X15706611Y-13101079D01*
X15706611Y-13101079D02*
X15716134Y-13082031D01*
X15716134Y-13082031D02*
X15725658Y-13053460D01*
X15725658Y-13053460D02*
X15735182Y-13005841D01*
X15735182Y-13005841D02*
X15735182Y-12967746D01*
X15735182Y-12967746D02*
X15725658Y-12920127D01*
X15725658Y-12920127D02*
X15716134Y-12891555D01*
X15716134Y-12891555D02*
X15706611Y-12872508D01*
X15706611Y-12872508D02*
X15687563Y-12843936D01*
X15687563Y-12843936D02*
X15678039Y-12834412D01*
X10683211Y-13306211D02*
X10683211Y-13164789D01*
X10541789Y-13164789D01*
X10541789Y-13306211D01*
X10683211Y-13306211D01*
X10954229Y-13126984D02*
X11078039Y-13126984D01*
X11078039Y-13126984D02*
X11011372Y-13203174D01*
X11011372Y-13203174D02*
X11039944Y-13203174D01*
X11039944Y-13203174D02*
X11058991Y-13212698D01*
X11058991Y-13212698D02*
X11068515Y-13222222D01*
X11068515Y-13222222D02*
X11078039Y-13241269D01*
X11078039Y-13241269D02*
X11078039Y-13288888D01*
X11078039Y-13288888D02*
X11068515Y-13307936D01*
X11068515Y-13307936D02*
X11058991Y-13317460D01*
X11058991Y-13317460D02*
X11039944Y-13326984D01*
X11039944Y-13326984D02*
X10982801Y-13326984D01*
X10982801Y-13326984D02*
X10963753Y-13317460D01*
X10963753Y-13317460D02*
X10954229Y-13307936D01*
X11163753Y-13307936D02*
X11173277Y-13317460D01*
X11173277Y-13317460D02*
X11163753Y-13326984D01*
X11163753Y-13326984D02*
X11154229Y-13317460D01*
X11154229Y-13317460D02*
X11163753Y-13307936D01*
X11163753Y-13307936D02*
X11163753Y-13326984D01*
X11344705Y-13193650D02*
X11344705Y-13326984D01*
X11297086Y-13117460D02*
X11249467Y-13260317D01*
X11249467Y-13260317D02*
X11373277Y-13260317D01*
X11544705Y-13126984D02*
X11449467Y-13126984D01*
X11449467Y-13126984D02*
X11439943Y-13222222D01*
X11439943Y-13222222D02*
X11449467Y-13212698D01*
X11449467Y-13212698D02*
X11468515Y-13203174D01*
X11468515Y-13203174D02*
X11516134Y-13203174D01*
X11516134Y-13203174D02*
X11535182Y-13212698D01*
X11535182Y-13212698D02*
X11544705Y-13222222D01*
X11544705Y-13222222D02*
X11554229Y-13241269D01*
X11554229Y-13241269D02*
X11554229Y-13288888D01*
X11554229Y-13288888D02*
X11544705Y-13307936D01*
X11544705Y-13307936D02*
X11535182Y-13317460D01*
X11535182Y-13317460D02*
X11516134Y-13326984D01*
X11516134Y-13326984D02*
X11468515Y-13326984D01*
X11468515Y-13326984D02*
X11449467Y-13317460D01*
X11449467Y-13317460D02*
X11439943Y-13307936D01*
X11725658Y-13193650D02*
X11725658Y-13326984D01*
X11678039Y-13117460D02*
X11630420Y-13260317D01*
X11630420Y-13260317D02*
X11754229Y-13260317D01*
X11830420Y-13326984D02*
X11830420Y-13193650D01*
X11830420Y-13212698D02*
X11839943Y-13203174D01*
X11839943Y-13203174D02*
X11858991Y-13193650D01*
X11858991Y-13193650D02*
X11887563Y-13193650D01*
X11887563Y-13193650D02*
X11906610Y-13203174D01*
X11906610Y-13203174D02*
X11916134Y-13222222D01*
X11916134Y-13222222D02*
X11916134Y-13326984D01*
X11916134Y-13222222D02*
X11925658Y-13203174D01*
X11925658Y-13203174D02*
X11944705Y-13193650D01*
X11944705Y-13193650D02*
X11973277Y-13193650D01*
X11973277Y-13193650D02*
X11992324Y-13203174D01*
X11992324Y-13203174D02*
X12001848Y-13222222D01*
X12001848Y-13222222D02*
X12001848Y-13326984D01*
X12097086Y-13326984D02*
X12097086Y-13193650D01*
X12097086Y-13212698D02*
X12106610Y-13203174D01*
X12106610Y-13203174D02*
X12125658Y-13193650D01*
X12125658Y-13193650D02*
X12154229Y-13193650D01*
X12154229Y-13193650D02*
X12173277Y-13203174D01*
X12173277Y-13203174D02*
X12182801Y-13222222D01*
X12182801Y-13222222D02*
X12182801Y-13326984D01*
X12182801Y-13222222D02*
X12192324Y-13203174D01*
X12192324Y-13203174D02*
X12211372Y-13193650D01*
X12211372Y-13193650D02*
X12239943Y-13193650D01*
X12239943Y-13193650D02*
X12258991Y-13203174D01*
X12258991Y-13203174D02*
X12268515Y-13222222D01*
X12268515Y-13222222D02*
X12268515Y-13326984D01*
X12658991Y-13117460D02*
X12487563Y-13374603D01*
X12916134Y-13126984D02*
X12935182Y-13126984D01*
X12935182Y-13126984D02*
X12954229Y-13136508D01*
X12954229Y-13136508D02*
X12963753Y-13146031D01*
X12963753Y-13146031D02*
X12973277Y-13165079D01*
X12973277Y-13165079D02*
X12982801Y-13203174D01*
X12982801Y-13203174D02*
X12982801Y-13250793D01*
X12982801Y-13250793D02*
X12973277Y-13288888D01*
X12973277Y-13288888D02*
X12963753Y-13307936D01*
X12963753Y-13307936D02*
X12954229Y-13317460D01*
X12954229Y-13317460D02*
X12935182Y-13326984D01*
X12935182Y-13326984D02*
X12916134Y-13326984D01*
X12916134Y-13326984D02*
X12897086Y-13317460D01*
X12897086Y-13317460D02*
X12887563Y-13307936D01*
X12887563Y-13307936D02*
X12878039Y-13288888D01*
X12878039Y-13288888D02*
X12868515Y-13250793D01*
X12868515Y-13250793D02*
X12868515Y-13203174D01*
X12868515Y-13203174D02*
X12878039Y-13165079D01*
X12878039Y-13165079D02*
X12887563Y-13146031D01*
X12887563Y-13146031D02*
X12897086Y-13136508D01*
X12897086Y-13136508D02*
X12916134Y-13126984D01*
X13068515Y-13307936D02*
X13078039Y-13317460D01*
X13078039Y-13317460D02*
X13068515Y-13326984D01*
X13068515Y-13326984D02*
X13058991Y-13317460D01*
X13058991Y-13317460D02*
X13068515Y-13307936D01*
X13068515Y-13307936D02*
X13068515Y-13326984D01*
X13268515Y-13326984D02*
X13154229Y-13326984D01*
X13211372Y-13326984D02*
X13211372Y-13126984D01*
X13211372Y-13126984D02*
X13192325Y-13155555D01*
X13192325Y-13155555D02*
X13173277Y-13174603D01*
X13173277Y-13174603D02*
X13154229Y-13184127D01*
X13335182Y-13126984D02*
X13458991Y-13126984D01*
X13458991Y-13126984D02*
X13392325Y-13203174D01*
X13392325Y-13203174D02*
X13420896Y-13203174D01*
X13420896Y-13203174D02*
X13439944Y-13212698D01*
X13439944Y-13212698D02*
X13449467Y-13222222D01*
X13449467Y-13222222D02*
X13458991Y-13241269D01*
X13458991Y-13241269D02*
X13458991Y-13288888D01*
X13458991Y-13288888D02*
X13449467Y-13307936D01*
X13449467Y-13307936D02*
X13439944Y-13317460D01*
X13439944Y-13317460D02*
X13420896Y-13326984D01*
X13420896Y-13326984D02*
X13363753Y-13326984D01*
X13363753Y-13326984D02*
X13344706Y-13317460D01*
X13344706Y-13317460D02*
X13335182Y-13307936D01*
X13630420Y-13126984D02*
X13592325Y-13126984D01*
X13592325Y-13126984D02*
X13573277Y-13136508D01*
X13573277Y-13136508D02*
X13563753Y-13146031D01*
X13563753Y-13146031D02*
X13544706Y-13174603D01*
X13544706Y-13174603D02*
X13535182Y-13212698D01*
X13535182Y-13212698D02*
X13535182Y-13288888D01*
X13535182Y-13288888D02*
X13544706Y-13307936D01*
X13544706Y-13307936D02*
X13554229Y-13317460D01*
X13554229Y-13317460D02*
X13573277Y-13326984D01*
X13573277Y-13326984D02*
X13611372Y-13326984D01*
X13611372Y-13326984D02*
X13630420Y-13317460D01*
X13630420Y-13317460D02*
X13639944Y-13307936D01*
X13639944Y-13307936D02*
X13649467Y-13288888D01*
X13649467Y-13288888D02*
X13649467Y-13241269D01*
X13649467Y-13241269D02*
X13639944Y-13222222D01*
X13639944Y-13222222D02*
X13630420Y-13212698D01*
X13630420Y-13212698D02*
X13611372Y-13203174D01*
X13611372Y-13203174D02*
X13573277Y-13203174D01*
X13573277Y-13203174D02*
X13554229Y-13212698D01*
X13554229Y-13212698D02*
X13544706Y-13222222D01*
X13544706Y-13222222D02*
X13535182Y-13241269D01*
X13773277Y-13126984D02*
X13792325Y-13126984D01*
X13792325Y-13126984D02*
X13811372Y-13136508D01*
X13811372Y-13136508D02*
X13820896Y-13146031D01*
X13820896Y-13146031D02*
X13830420Y-13165079D01*
X13830420Y-13165079D02*
X13839944Y-13203174D01*
X13839944Y-13203174D02*
X13839944Y-13250793D01*
X13839944Y-13250793D02*
X13830420Y-13288888D01*
X13830420Y-13288888D02*
X13820896Y-13307936D01*
X13820896Y-13307936D02*
X13811372Y-13317460D01*
X13811372Y-13317460D02*
X13792325Y-13326984D01*
X13792325Y-13326984D02*
X13773277Y-13326984D01*
X13773277Y-13326984D02*
X13754229Y-13317460D01*
X13754229Y-13317460D02*
X13744706Y-13307936D01*
X13744706Y-13307936D02*
X13735182Y-13288888D01*
X13735182Y-13288888D02*
X13725658Y-13250793D01*
X13725658Y-13250793D02*
X13725658Y-13203174D01*
X13725658Y-13203174D02*
X13735182Y-13165079D01*
X13735182Y-13165079D02*
X13744706Y-13146031D01*
X13744706Y-13146031D02*
X13754229Y-13136508D01*
X13754229Y-13136508D02*
X13773277Y-13126984D01*
X13916134Y-13126984D02*
X13916134Y-13165079D01*
X13992325Y-13126984D02*
X13992325Y-13165079D01*
X14287563Y-13403174D02*
X14278039Y-13393650D01*
X14278039Y-13393650D02*
X14258991Y-13365079D01*
X14258991Y-13365079D02*
X14249468Y-13346031D01*
X14249468Y-13346031D02*
X14239944Y-13317460D01*
X14239944Y-13317460D02*
X14230420Y-13269841D01*
X14230420Y-13269841D02*
X14230420Y-13231746D01*
X14230420Y-13231746D02*
X14239944Y-13184127D01*
X14239944Y-13184127D02*
X14249468Y-13155555D01*
X14249468Y-13155555D02*
X14258991Y-13136508D01*
X14258991Y-13136508D02*
X14278039Y-13107936D01*
X14278039Y-13107936D02*
X14287563Y-13098412D01*
X14468515Y-13326984D02*
X14354229Y-13326984D01*
X14411372Y-13326984D02*
X14411372Y-13126984D01*
X14411372Y-13126984D02*
X14392325Y-13155555D01*
X14392325Y-13155555D02*
X14373277Y-13174603D01*
X14373277Y-13174603D02*
X14354229Y-13184127D01*
X14544706Y-13146031D02*
X14554229Y-13136508D01*
X14554229Y-13136508D02*
X14573277Y-13126984D01*
X14573277Y-13126984D02*
X14620896Y-13126984D01*
X14620896Y-13126984D02*
X14639944Y-13136508D01*
X14639944Y-13136508D02*
X14649468Y-13146031D01*
X14649468Y-13146031D02*
X14658991Y-13165079D01*
X14658991Y-13165079D02*
X14658991Y-13184127D01*
X14658991Y-13184127D02*
X14649468Y-13212698D01*
X14649468Y-13212698D02*
X14535182Y-13326984D01*
X14535182Y-13326984D02*
X14658991Y-13326984D01*
X14897087Y-13326984D02*
X14897087Y-13126984D01*
X14982801Y-13326984D02*
X14982801Y-13222222D01*
X14982801Y-13222222D02*
X14973277Y-13203174D01*
X14973277Y-13203174D02*
X14954230Y-13193650D01*
X14954230Y-13193650D02*
X14925658Y-13193650D01*
X14925658Y-13193650D02*
X14906610Y-13203174D01*
X14906610Y-13203174D02*
X14897087Y-13212698D01*
X15106610Y-13326984D02*
X15087563Y-13317460D01*
X15087563Y-13317460D02*
X15078039Y-13307936D01*
X15078039Y-13307936D02*
X15068515Y-13288888D01*
X15068515Y-13288888D02*
X15068515Y-13231746D01*
X15068515Y-13231746D02*
X15078039Y-13212698D01*
X15078039Y-13212698D02*
X15087563Y-13203174D01*
X15087563Y-13203174D02*
X15106610Y-13193650D01*
X15106610Y-13193650D02*
X15135182Y-13193650D01*
X15135182Y-13193650D02*
X15154230Y-13203174D01*
X15154230Y-13203174D02*
X15163753Y-13212698D01*
X15163753Y-13212698D02*
X15173277Y-13231746D01*
X15173277Y-13231746D02*
X15173277Y-13288888D01*
X15173277Y-13288888D02*
X15163753Y-13307936D01*
X15163753Y-13307936D02*
X15154230Y-13317460D01*
X15154230Y-13317460D02*
X15135182Y-13326984D01*
X15135182Y-13326984D02*
X15106610Y-13326984D01*
X15287563Y-13326984D02*
X15268515Y-13317460D01*
X15268515Y-13317460D02*
X15258991Y-13298412D01*
X15258991Y-13298412D02*
X15258991Y-13126984D01*
X15439944Y-13317460D02*
X15420896Y-13326984D01*
X15420896Y-13326984D02*
X15382801Y-13326984D01*
X15382801Y-13326984D02*
X15363753Y-13317460D01*
X15363753Y-13317460D02*
X15354230Y-13298412D01*
X15354230Y-13298412D02*
X15354230Y-13222222D01*
X15354230Y-13222222D02*
X15363753Y-13203174D01*
X15363753Y-13203174D02*
X15382801Y-13193650D01*
X15382801Y-13193650D02*
X15420896Y-13193650D01*
X15420896Y-13193650D02*
X15439944Y-13203174D01*
X15439944Y-13203174D02*
X15449468Y-13222222D01*
X15449468Y-13222222D02*
X15449468Y-13241269D01*
X15449468Y-13241269D02*
X15354230Y-13260317D01*
X15525658Y-13317460D02*
X15544706Y-13326984D01*
X15544706Y-13326984D02*
X15582801Y-13326984D01*
X15582801Y-13326984D02*
X15601849Y-13317460D01*
X15601849Y-13317460D02*
X15611372Y-13298412D01*
X15611372Y-13298412D02*
X15611372Y-13288888D01*
X15611372Y-13288888D02*
X15601849Y-13269841D01*
X15601849Y-13269841D02*
X15582801Y-13260317D01*
X15582801Y-13260317D02*
X15554230Y-13260317D01*
X15554230Y-13260317D02*
X15535182Y-13250793D01*
X15535182Y-13250793D02*
X15525658Y-13231746D01*
X15525658Y-13231746D02*
X15525658Y-13222222D01*
X15525658Y-13222222D02*
X15535182Y-13203174D01*
X15535182Y-13203174D02*
X15554230Y-13193650D01*
X15554230Y-13193650D02*
X15582801Y-13193650D01*
X15582801Y-13193650D02*
X15601849Y-13203174D01*
X15678039Y-13403174D02*
X15687563Y-13393650D01*
X15687563Y-13393650D02*
X15706611Y-13365079D01*
X15706611Y-13365079D02*
X15716134Y-13346031D01*
X15716134Y-13346031D02*
X15725658Y-13317460D01*
X15725658Y-13317460D02*
X15735182Y-13269841D01*
X15735182Y-13269841D02*
X15735182Y-13231746D01*
X15735182Y-13231746D02*
X15725658Y-13184127D01*
X15725658Y-13184127D02*
X15716134Y-13155555D01*
X15716134Y-13155555D02*
X15706611Y-13136508D01*
X15706611Y-13136508D02*
X15687563Y-13107936D01*
X15687563Y-13107936D02*
X15678039Y-13098412D01*
M02*
